<svg version="1.1" xmlns="http://www.w3.org/2000/svg" xmlns:xlink="http://www.w3.org/1999/xlink" width="121.64105" height="55.3643" viewBox="0,0,121.64105,55.3643"><g transform="translate(-179.62694,-148.4968)"><g data-paper-data="{&quot;isPaintingLayer&quot;:true}" fill-rule="nonzero" stroke-linecap="butt" stroke-linejoin="miter" stroke-miterlimit="10" stroke-dasharray="" stroke-dashoffset="0" style="mix-blend-mode: normal"><g fill="#a7a7a7" stroke="#000000" stroke-width="0.5"><path d="M301.018,176.93003c0,14.416 -11.729,26.144 -26.144,26.144h-67.713c-14.415,0 -26.143,-11.727 -26.143,-26.144c0,-14.415 11.727,-26.143 26.143,-26.143h67.713c14.415,0 26.144,11.728 26.144,26.143z"/><path d="M296.514,176.93003c0,11.952 -9.688,21.641 -21.64,21.641h-67.713c-11.952,0 -21.641,-9.689 -21.641,-21.641v0c0,-11.951 9.689,-21.64 21.641,-21.64h67.713c11.952,0 21.64,9.689 21.64,21.64z"/></g><path d="M233.98969,176.17895c0,15.15036 -12.11355,27.43215 -27.05637,27.43215c-14.94282,0 -27.05637,-12.28179 -27.05637,-27.43215c0,-15.15036 12.11355,-27.43215 27.05637,-27.43215c14.94282,0 27.05637,12.28179 27.05637,27.43215z" fill="#a5a5a5" stroke="#000000" stroke-width="0.5"/><text transform="translate(183.63478,185.19773) scale(0.63028,0.63028)" font-size="40" xml:space="preserve" fill="#000000" fill-rule="nonzero" stroke="none" stroke-width="1" stroke-linecap="butt" stroke-linejoin="miter" stroke-miterlimit="10" stroke-dasharray="" stroke-dashoffset="0" font-family="Sans Serif" font-weight="normal" text-anchor="start" style="mix-blend-mode: normal"><tspan x="0" dy="0">OFF</tspan></text></g></g></svg>