<?xml version="1.0" encoding="UTF-8"?>
<svg xmlns="http://www.w3.org/2000/svg" xmlns:xlink="http://www.w3.org/1999/xlink" width="72px" height="72px" viewBox="0 0 72 72" version="1.1">
<g id="surface1">
<path style=" stroke:none;fill-rule:evenodd;fill:rgb(99.607843%,99.607843%,99.607843%);fill-opacity:1;" d="M -0.03125 -0.03125 C 23.96875 -0.03125 47.96875 -0.03125 71.96875 -0.03125 C 71.96875 23.96875 71.96875 47.96875 71.96875 71.96875 C 47.96875 71.96875 23.96875 71.96875 -0.03125 71.96875 C -0.03125 47.96875 -0.03125 23.96875 -0.03125 -0.03125 Z M -0.03125 -0.03125 "/>
<path style=" stroke:none;fill-rule:evenodd;fill:rgb(30.588236%,30.588236%,30.588236%);fill-opacity:1;" d="M 37.828125 18.570312 C 37.789062 17.578125 37.789062 16.601562 37.828125 15.628906 C 37.828125 16.089844 37.828125 16.550781 37.828125 17.011719 C 39.804688 16.34375 41.195312 15.042969 42 13.109375 C 42.953125 10.230469 42.324219 7.761719 40.109375 5.699219 C 38.226562 4.222656 36.125 3.804688 33.808594 4.441406 C 31.4375 5.292969 29.945312 6.941406 29.339844 9.390625 C 28.90625 12.511719 30.015625 14.902344 32.671875 16.558594 C 32.972656 16.742188 33.292969 16.871094 33.628906 16.949219 C 33.628906 16.488281 33.628906 16.03125 33.628906 15.570312 C 33.667969 16.539062 33.667969 17.519531 33.628906 18.511719 C 31.570312 17.941406 29.980469 16.742188 28.859375 14.910156 C 27.628906 12.691406 27.410156 10.371094 28.199219 7.949219 C 29.632812 4.578125 32.183594 2.816406 35.851562 2.671875 C 39.335938 2.816406 41.824219 4.457031 43.320312 7.589844 C 44.382812 10.417969 44.0625 13.078125 42.359375 15.570312 C 41.195312 17.085938 39.683594 18.085938 37.828125 18.570312 Z M 37.828125 18.570312 "/>
<path style=" stroke:none;fill-rule:evenodd;fill:rgb(99.215686%,99.215686%,99.215686%);fill-opacity:1;" d="M 37.828125 15.628906 C 38.269531 15.515625 38.6875 15.355469 39.089844 15.148438 C 39.167969 13.578125 39.167969 12 39.089844 10.410156 C 36.824219 9.132812 34.566406 9.132812 32.308594 10.410156 C 32.230469 11.980469 32.230469 13.539062 32.308594 15.089844 C 32.742188 15.285156 33.183594 15.445312 33.628906 15.570312 C 33.628906 16.03125 33.628906 16.488281 33.628906 16.949219 C 33.292969 16.871094 32.972656 16.742188 32.671875 16.558594 C 30.015625 14.902344 28.90625 12.511719 29.339844 9.390625 C 29.945312 6.941406 31.4375 5.292969 33.808594 4.441406 C 36.125 3.804688 38.226562 4.222656 40.109375 5.699219 C 42.324219 7.761719 42.953125 10.230469 42 13.109375 C 41.195312 15.042969 39.804688 16.34375 37.828125 17.011719 C 37.828125 16.550781 37.828125 16.089844 37.828125 15.628906 Z M 37.828125 15.628906 "/>
<path style=" stroke:none;fill-rule:evenodd;fill:rgb(30.19608%,30.19608%,30.19608%);fill-opacity:1;" d="M 39.089844 15.148438 C 39.0625 15.09375 39.023438 15.042969 38.96875 15 C 36.824219 14.101562 34.664062 14.082031 32.488281 14.941406 C 32.425781 14.992188 32.367188 15.042969 32.308594 15.089844 C 32.230469 13.539062 32.230469 11.980469 32.308594 10.410156 C 34.566406 9.132812 36.824219 9.132812 39.089844 10.410156 C 39.167969 12 39.167969 13.578125 39.089844 15.148438 Z M 39.089844 15.148438 "/>
<path style=" stroke:none;fill-rule:evenodd;fill:rgb(20%,20%,20%);fill-opacity:1;" d="M 39.089844 15.148438 C 38.6875 15.355469 38.269531 15.515625 37.828125 15.628906 C 37.789062 16.601562 37.789062 17.578125 37.828125 18.570312 C 37.769531 18.917969 37.75 19.277344 37.769531 19.648438 C 36.410156 19.632812 35.046875 19.652344 33.691406 19.710938 C 33.710938 19.320312 33.6875 18.9375 33.628906 18.570312 C 33.628906 18.550781 33.628906 18.53125 33.628906 18.511719 C 33.667969 17.519531 33.667969 16.539062 33.628906 15.570312 C 33.183594 15.445312 32.742188 15.285156 32.308594 15.089844 C 32.367188 15.042969 32.425781 14.992188 32.488281 14.941406 C 34.664062 14.082031 36.824219 14.101562 38.96875 15 C 39.023438 15.042969 39.0625 15.09375 39.089844 15.148438 Z M 39.089844 15.148438 "/>
<path style=" stroke:none;fill-rule:evenodd;fill:rgb(30.588236%,30.588236%,30.588236%);fill-opacity:1;" d="M 33.628906 18.570312 C 33.6875 18.9375 33.710938 19.320312 33.691406 19.710938 C 35.046875 19.652344 36.410156 19.632812 37.769531 19.648438 C 37.75 19.277344 37.769531 18.917969 37.828125 18.570312 C 37.828125 18.949219 37.828125 19.328125 37.828125 19.710938 C 42.546875 20.101562 46.769531 21.742188 50.488281 24.628906 C 51.109375 24.039062 51.71875 23.441406 52.320312 22.828125 C 52.304688 22.671875 52.304688 22.511719 52.320312 22.351562 C 53.25 21.378906 54.179688 20.410156 55.109375 19.441406 C 56.511719 19.617188 57.480469 20.367188 58.019531 21.691406 C 58.183594 22.054688 58.265625 22.433594 58.261719 22.828125 C 57.230469 23.699219 56.199219 24.570312 55.171875 25.441406 C 55.015625 25.46875 54.882812 25.417969 54.78125 25.289062 C 54.179688 25.839844 53.589844 26.402344 53.011719 26.96875 C 58.078125 32.570312 60.089844 39.128906 59.039062 46.648438 C 57.769531 53.738281 54.097656 59.1875 48.03125 63 C 42.359375 66.265625 36.339844 67.128906 29.96875 65.578125 C 22.949219 63.539062 17.859375 59.230469 14.699219 52.648438 C 12.230469 46.929688 11.972656 41.109375 13.921875 35.191406 C 15.023438 32.167969 16.65625 29.476562 18.808594 27.121094 C 18.226562 26.519531 17.628906 25.9375 17.011719 25.378906 C 16.859375 25.34375 16.71875 25.371094 16.589844 25.46875 C 15.523438 24.613281 14.472656 23.730469 13.441406 22.828125 C 13.582031 21.296875 14.351562 20.207031 15.75 19.558594 C 16.019531 19.429688 16.296875 19.390625 16.589844 19.441406 C 17.539062 20.414062 18.472656 21.402344 19.378906 22.410156 C 19.40625 22.539062 19.375 22.660156 19.289062 22.769531 C 19.949219 23.449219 20.628906 24.109375 21.328125 24.75 C 24.933594 21.898438 29.035156 20.21875 33.628906 19.710938 C 33.628906 19.328125 33.628906 18.949219 33.628906 18.570312 Z M 33.628906 18.570312 "/>
<path style=" stroke:none;fill-rule:evenodd;fill:rgb(69.803923%,69.803923%,69.803923%);fill-opacity:1;" d="M 35.910156 23.789062 C 35.851562 23.480469 35.832031 23.160156 35.851562 22.828125 C 34.816406 22.992188 33.796875 23.222656 32.789062 23.519531 C 32.714844 23.546875 32.675781 23.59375 32.671875 23.671875 C 32.605469 23.265625 32.527344 22.855469 32.429688 22.441406 C 32.4375 22.394531 32.457031 22.355469 32.488281 22.320312 C 33.621094 22.125 34.761719 22.035156 35.910156 22.050781 C 35.910156 22.628906 35.910156 23.210938 35.910156 23.789062 Z M 35.910156 23.789062 "/>
<path style=" stroke:none;fill-rule:evenodd;fill:rgb(69.411767%,69.411767%,69.411767%);fill-opacity:1;" d="M 39.449219 22.648438 C 39.242188 22.570312 39.015625 22.53125 38.761719 22.53125 C 37.90625 22.554688 37.054688 22.625 36.210938 22.738281 C 36.113281 23.082031 36.054688 23.433594 36.03125 23.789062 C 36.03125 23.210938 36.03125 22.628906 36.03125 22.050781 C 37.199219 22.054688 38.359375 22.15625 39.511719 22.351562 C 39.527344 22.464844 39.507812 22.566406 39.449219 22.648438 Z M 39.449219 22.648438 "/>
<path style=" stroke:none;fill-rule:evenodd;fill:rgb(70.19608%,70.19608%,70.19608%);fill-opacity:1;" d="M 32.488281 23.671875 C 32.1875 23.742188 31.886719 23.832031 31.589844 23.941406 C 30.875 24.21875 30.175781 24.527344 29.488281 24.871094 C 29.269531 24.328125 29.089844 23.789062 28.949219 23.25 C 30.039062 22.839844 31.160156 22.558594 32.308594 22.410156 C 32.347656 22.832031 32.40625 23.253906 32.488281 23.671875 Z M 32.488281 23.671875 "/>
<path style=" stroke:none;fill-rule:evenodd;fill:rgb(90.588236%,90.588236%,90.588236%);fill-opacity:1;" d="M 56.851562 41.488281 C 56.851562 41.949219 56.851562 42.410156 56.851562 42.871094 C 56.277344 42.851562 55.71875 42.871094 55.171875 42.929688 C 55.726562 43.046875 56.304688 43.089844 56.910156 43.050781 C 56.890625 44.21875 56.789062 45.378906 56.609375 46.53125 C 56.027344 46.4375 55.449219 46.335938 54.871094 46.230469 C 54.871094 46.289062 54.871094 46.351562 54.871094 46.410156 C 55.429688 46.503906 55.988281 46.582031 56.550781 46.648438 C 56.375 47.777344 56.097656 48.878906 55.710938 49.949219 C 55.152344 49.890625 54.613281 49.730469 54.089844 49.46875 C 54.070312 49.5 54.050781 49.53125 54.03125 49.558594 C 54.085938 49.648438 54.167969 49.707031 54.269531 49.738281 C 54.738281 49.867188 55.179688 50.046875 55.589844 50.28125 C 55.203125 51.359375 54.714844 52.390625 54.121094 53.371094 C 53.675781 53.09375 53.226562 52.824219 52.769531 52.558594 C 52.703125 52.515625 52.640625 52.523438 52.589844 52.589844 C 53.070312 52.910156 53.550781 53.230469 54.03125 53.550781 C 53.636719 54.234375 53.207031 54.894531 52.738281 55.53125 C 52.519531 55.8125 52.277344 56.070312 52.019531 56.308594 C 51.613281 56.003906 51.222656 55.671875 50.851562 55.320312 C 50.78125 55.273438 50.722656 55.285156 50.671875 55.351562 C 51.050781 55.742188 51.460938 56.101562 51.898438 56.429688 C 51.875 56.558594 51.816406 56.679688 51.71875 56.789062 C 51.039062 57.570312 50.296875 58.292969 49.5 58.949219 C 49.121094 58.511719 48.738281 58.070312 48.359375 57.628906 C 48.285156 57.675781 48.265625 57.738281 48.300781 57.808594 C 48.644531 58.226562 48.992188 58.636719 49.351562 59.039062 C 48.472656 59.796875 47.535156 60.46875 46.53125 61.050781 C 46.25 60.597656 45.976562 60.136719 45.71875 59.671875 C 45.648438 59.597656 45.578125 59.597656 45.511719 59.671875 C 45.816406 60.160156 46.085938 60.660156 46.320312 61.171875 C 45.3125 61.738281 44.261719 62.21875 43.171875 62.609375 C 43.039062 62.039062 42.839844 61.5 42.570312 60.988281 C 42.550781 61.03125 42.53125 61.070312 42.511719 61.109375 C 42.679688 61.613281 42.859375 62.113281 43.050781 62.609375 C 41.992188 63.070312 40.894531 63.390625 39.75 63.570312 C 39.621094 63.003906 39.484375 62.441406 39.328125 61.890625 C 39.308594 61.949219 39.289062 62.011719 39.269531 62.070312 C 39.363281 62.589844 39.441406 63.109375 39.511719 63.628906 C 38.890625 63.691406 38.269531 63.761719 37.648438 63.839844 C 37.109375 63.871094 36.570312 63.878906 36.03125 63.871094 C 36.066406 63.285156 36.027344 62.726562 35.910156 62.191406 C 35.851562 62.738281 35.832031 63.300781 35.851562 63.871094 C 35.609375 63.871094 35.371094 63.871094 35.128906 63.871094 C 34.726562 63.875 34.328125 63.855469 33.929688 63.808594 C 33.503906 63.644531 33.0625 63.492188 32.609375 63.359375 C 32.535156 63.335938 32.496094 63.285156 32.488281 63.210938 C 32.554688 62.839844 32.613281 62.472656 32.671875 62.101562 C 32.648438 62.03125 32.628906 61.960938 32.609375 61.890625 C 32.472656 62.320312 32.371094 62.761719 32.308594 63.210938 C 31.21875 62.898438 30.175781 62.457031 29.191406 61.890625 C 29.261719 61.609375 29.359375 61.339844 29.488281 61.078125 C 29.433594 60.992188 29.375 60.980469 29.308594 61.050781 C 29.207031 61.296875 29.109375 61.535156 29.011719 61.769531 C 28.023438 61.257812 27.121094 60.640625 26.308594 59.910156 C 26.320312 59.816406 26.363281 59.738281 26.429688 59.671875 C 26.261719 59.59375 26.164062 59.65625 26.128906 59.851562 C 21.265625 55.859375 18.632812 50.699219 18.238281 44.371094 C 18.085938 37.753906 20.433594 32.222656 25.289062 27.78125 C 26.570312 26.679688 27.953125 25.730469 29.429688 24.929688 C 29.46875 24.929688 29.488281 24.910156 29.488281 24.871094 C 30.175781 24.527344 30.875 24.21875 31.589844 23.941406 C 31.886719 23.832031 32.1875 23.742188 32.488281 23.671875 C 32.519531 23.808594 32.539062 23.949219 32.550781 24.089844 C 32.609375 24.089844 32.671875 24.089844 32.730469 24.089844 C 32.734375 23.945312 32.714844 23.804688 32.671875 23.671875 C 32.675781 23.59375 32.714844 23.546875 32.789062 23.519531 C 33.796875 23.222656 34.816406 22.992188 35.851562 22.828125 C 35.832031 23.160156 35.851562 23.480469 35.910156 23.789062 C 35.949219 23.789062 35.988281 23.789062 36.03125 23.789062 C 36.054688 23.433594 36.113281 23.082031 36.210938 22.738281 C 37.054688 22.625 37.90625 22.554688 38.761719 22.53125 C 39.015625 22.53125 39.242188 22.570312 39.449219 22.648438 C 39.339844 23.109375 39.300781 23.566406 39.328125 24.03125 C 39.472656 23.539062 39.585938 23.039062 39.660156 22.53125 C 39.699219 22.464844 39.761719 22.425781 39.839844 22.410156 C 40.9375 22.613281 42.007812 22.914062 43.050781 23.308594 C 42.890625 23.773438 42.71875 24.234375 42.539062 24.691406 C 42.492188 24.777344 42.503906 24.855469 42.570312 24.929688 C 42.789062 24.464844 42.980469 23.984375 43.140625 23.488281 C 43.164062 23.433594 43.203125 23.394531 43.261719 23.371094 C 44.34375 23.757812 45.375 24.246094 46.351562 24.839844 C 46.070312 25.320312 45.789062 25.800781 45.511719 26.28125 C 45.542969 26.320312 45.582031 26.351562 45.628906 26.371094 C 45.933594 25.914062 46.210938 25.445312 46.46875 24.960938 C 46.636719 24.980469 46.796875 25.039062 46.949219 25.140625 C 47.804688 25.65625 48.605469 26.246094 49.351562 26.910156 C 48.96875 27.332031 48.605469 27.773438 48.269531 28.230469 C 48.300781 28.25 48.328125 28.269531 48.359375 28.289062 C 48.738281 27.871094 49.117188 27.453125 49.5 27.03125 C 50.378906 27.757812 51.1875 28.558594 51.929688 29.429688 C 51.546875 29.820312 51.136719 30.183594 50.699219 30.511719 C 50.65625 30.578125 50.664062 30.636719 50.730469 30.691406 C 51.171875 30.328125 51.609375 29.96875 52.050781 29.609375 C 52.78125 30.449219 53.429688 31.351562 54 32.308594 C 54.046875 32.378906 54.035156 32.4375 53.96875 32.488281 C 53.539062 32.753906 53.101562 33.003906 52.648438 33.238281 C 52.574219 33.3125 52.574219 33.382812 52.648438 33.449219 C 53.128906 33.171875 53.609375 32.890625 54.089844 32.609375 C 54.25 32.765625 54.378906 32.945312 54.480469 33.148438 C 54.925781 33.980469 55.285156 34.84375 55.558594 35.730469 C 55.058594 35.941406 54.550781 36.121094 54.03125 36.269531 C 54.03125 36.328125 54.03125 36.390625 54.03125 36.449219 C 54.566406 36.289062 55.09375 36.109375 55.621094 35.910156 C 56.097656 36.976562 56.40625 38.097656 56.550781 39.269531 C 55.992188 39.371094 55.433594 39.449219 54.871094 39.511719 C 54.871094 39.570312 54.871094 39.628906 54.871094 39.691406 C 55.449219 39.59375 56.027344 39.523438 56.609375 39.480469 C 56.742188 40.140625 56.820312 40.8125 56.851562 41.488281 Z M 56.851562 41.488281 "/>
<path style=" stroke:none;fill-rule:evenodd;fill:rgb(70.19608%,70.19608%,70.19608%);fill-opacity:1;" d="M 29.429688 24.929688 C 27.953125 25.730469 26.570312 26.679688 25.289062 27.78125 C 20.433594 32.222656 18.085938 37.753906 18.238281 44.371094 C 18.632812 50.699219 21.265625 55.859375 26.128906 59.851562 C 25.890625 60.25 25.652344 60.648438 25.410156 61.050781 C 24.421875 60.460938 23.480469 59.800781 22.589844 59.070312 C 22.941406 58.648438 23.289062 58.230469 23.640625 57.808594 C 23.671875 57.738281 23.652344 57.675781 23.578125 57.628906 C 23.199219 58.070312 22.820312 58.511719 22.441406 58.949219 C 21.558594 58.199219 20.75 57.378906 20.011719 56.488281 C 20.441406 56.109375 20.882812 55.738281 21.328125 55.378906 C 21.238281 55.273438 21.136719 55.273438 21.03125 55.378906 C 20.691406 55.679688 20.351562 55.980469 20.011719 56.28125 C 19.867188 56.316406 19.753906 56.269531 19.679688 56.128906 C 19.03125 55.3125 18.441406 54.453125 17.910156 53.550781 C 18.398438 53.253906 18.878906 52.941406 19.351562 52.621094 C 19.328125 52.589844 19.308594 52.558594 19.289062 52.53125 C 18.785156 52.789062 18.296875 53.066406 17.820312 53.371094 C 17.277344 52.40625 16.796875 51.40625 16.378906 50.371094 C 16.335938 50.300781 16.34375 50.242188 16.410156 50.191406 C 16.859375 49.992188 17.320312 49.824219 17.789062 49.679688 C 17.90625 49.628906 17.925781 49.558594 17.851562 49.46875 C 17.320312 49.6875 16.78125 49.867188 16.230469 50.011719 C 15.875 48.90625 15.59375 47.789062 15.390625 46.648438 C 15.949219 46.570312 16.511719 46.488281 17.070312 46.410156 C 17.070312 46.351562 17.070312 46.289062 17.070312 46.230469 C 16.507812 46.3125 15.945312 46.410156 15.390625 46.53125 C 15.175781 45.378906 15.054688 44.21875 15.03125 43.050781 C 15.632812 43.089844 16.214844 43.046875 16.769531 42.929688 C 16.222656 42.871094 15.660156 42.851562 15.089844 42.871094 C 15.089844 42.449219 15.089844 42.03125 15.089844 41.609375 C 15.117188 40.902344 15.195312 40.203125 15.328125 39.511719 C 15.378906 39.488281 15.429688 39.46875 15.480469 39.449219 C 15.941406 39.53125 16.398438 39.609375 16.859375 39.691406 C 16.929688 39.671875 17 39.648438 17.070312 39.628906 C 16.5625 39.488281 16.042969 39.378906 15.511719 39.300781 C 15.441406 39.25 15.402344 39.179688 15.390625 39.089844 C 15.609375 38.015625 15.890625 36.953125 16.230469 35.910156 C 16.714844 36.0625 17.195312 36.230469 17.671875 36.421875 C 17.757812 36.46875 17.835938 36.457031 17.910156 36.390625 C 17.414062 36.152344 16.902344 35.933594 16.378906 35.730469 C 16.480469 35.324219 16.621094 34.921875 16.800781 34.53125 C 17.105469 33.859375 17.457031 33.21875 17.851562 32.609375 C 18.328125 32.890625 18.808594 33.171875 19.289062 33.449219 C 19.363281 33.382812 19.363281 33.3125 19.289062 33.238281 C 18.808594 33 18.351562 32.730469 17.910156 32.429688 C 18.46875 31.441406 19.109375 30.511719 19.828125 29.640625 C 19.957031 29.664062 20.078125 29.722656 20.191406 29.820312 C 20.519531 30.121094 20.859375 30.410156 21.210938 30.691406 C 21.273438 30.636719 21.285156 30.578125 21.238281 30.511719 C 20.8125 30.179688 20.402344 29.832031 20.011719 29.460938 C 20.742188 28.558594 21.5625 27.75 22.46875 27.03125 C 22.808594 27.429688 23.148438 27.828125 23.488281 28.230469 C 23.550781 28.308594 23.609375 28.308594 23.671875 28.230469 C 23.355469 27.785156 23.003906 27.363281 22.621094 26.96875 C 22.589844 26.878906 22.621094 26.808594 22.710938 26.761719 C 23.566406 26.097656 24.453125 25.488281 25.378906 24.929688 C 25.425781 24.9375 25.464844 24.957031 25.5 24.988281 C 25.757812 25.46875 26.039062 25.925781 26.339844 26.371094 C 26.371094 26.351562 26.398438 26.328125 26.429688 26.308594 C 26.164062 25.8125 25.882812 25.324219 25.589844 24.839844 C 26.515625 24.257812 27.496094 23.777344 28.53125 23.398438 C 28.617188 23.351562 28.695312 23.363281 28.769531 23.429688 C 28.945312 23.886719 29.117188 24.347656 29.28125 24.808594 C 29.304688 24.886719 29.355469 24.925781 29.429688 24.929688 Z M 29.429688 24.929688 "/>
<path style=" stroke:none;fill-rule:evenodd;fill:rgb(85.882354%,45.490196%,43.921569%);fill-opacity:1;" d="M 48.449219 32.128906 C 48.53125 31.976562 48.652344 31.886719 48.808594 31.859375 C 48.714844 31.988281 48.59375 32.078125 48.449219 32.128906 Z M 48.449219 32.128906 "/>
<path style=" stroke:none;fill-rule:evenodd;fill:rgb(81.960785%,16.078432%,15.686275%);fill-opacity:1;" d="M 48.449219 32.128906 C 44.898438 35.367188 41.316406 38.578125 37.710938 41.761719 C 38.152344 42.714844 37.992188 43.554688 37.230469 44.28125 C 36.472656 44.75 35.691406 44.789062 34.890625 44.398438 C 34.019531 43.703125 33.789062 42.832031 34.199219 41.789062 C 34.898438 40.765625 35.828125 40.472656 36.988281 40.921875 C 40.804688 37.976562 44.625 35.046875 48.449219 32.128906 Z M 48.449219 32.128906 "/>
<path style=" stroke:none;fill-rule:evenodd;fill:rgb(31.37255%,30.19608%,30.19608%);fill-opacity:1;" d="M 35.730469 42.03125 C 36.121094 41.949219 36.429688 42.066406 36.660156 42.390625 C 36.839844 43.007812 36.609375 43.367188 35.96875 43.46875 C 35.425781 43.347656 35.21875 43.003906 35.339844 42.449219 C 35.441406 42.277344 35.570312 42.136719 35.730469 42.03125 Z M 35.730469 42.03125 "/>
<path style=" stroke:none;fill-rule:evenodd;fill:rgb(49.019608%,49.019608%,49.019608%);fill-opacity:1;" d="M 15.089844 41.609375 C 15.089844 42.03125 15.089844 42.449219 15.089844 42.871094 C 15.660156 42.851562 16.222656 42.871094 16.769531 42.929688 C 16.191406 42.929688 15.609375 42.929688 15.03125 42.929688 C 15.011719 42.480469 15.03125 42.039062 15.089844 41.609375 Z M 15.089844 41.609375 "/>
<path style=" stroke:none;fill-rule:evenodd;fill:rgb(59.215689%,59.215689%,59.215689%);fill-opacity:1;" d="M 56.851562 41.488281 C 56.910156 41.957031 56.929688 42.4375 56.910156 42.929688 C 56.328125 42.929688 55.75 42.929688 55.171875 42.929688 C 55.71875 42.871094 56.277344 42.851562 56.851562 42.871094 C 56.851562 42.410156 56.851562 41.949219 56.851562 41.488281 Z M 56.851562 41.488281 "/>
<path style=" stroke:none;fill-rule:evenodd;fill:rgb(70.19608%,70.19608%,70.19608%);fill-opacity:1;" d="M 26.308594 59.910156 C 27.121094 60.640625 28.023438 61.257812 29.011719 61.769531 C 28.917969 62.046875 28.839844 62.324219 28.769531 62.609375 C 27.675781 62.226562 26.625 61.75 25.621094 61.171875 C 25.816406 60.738281 26.046875 60.316406 26.308594 59.910156 Z M 26.308594 59.910156 "/>
<path style=" stroke:none;fill-rule:evenodd;fill:rgb(69.803923%,69.803923%,69.803923%);fill-opacity:1;" d="M 29.191406 61.890625 C 30.175781 62.457031 31.21875 62.898438 32.308594 63.210938 C 32.289062 63.328125 32.269531 63.449219 32.25 63.570312 C 31.121094 63.382812 30.023438 63.09375 28.949219 62.699219 C 28.921875 62.675781 28.902344 62.644531 28.890625 62.609375 C 28.992188 62.363281 29.089844 62.125 29.191406 61.890625 Z M 29.191406 61.890625 "/>
<path style=" stroke:none;fill-rule:evenodd;fill:rgb(64.313728%,64.313728%,64.313728%);fill-opacity:1;" d="M 35.910156 62.191406 C 35.910156 62.769531 35.910156 63.351562 35.910156 63.929688 C 35.636719 63.949219 35.378906 63.929688 35.128906 63.871094 C 35.371094 63.871094 35.609375 63.871094 35.851562 63.871094 C 35.832031 63.300781 35.851562 62.738281 35.910156 62.191406 Z M 35.910156 62.191406 "/>
<path style=" stroke:none;fill-rule:evenodd;fill:rgb(67.450982%,67.450982%,67.450982%);fill-opacity:1;" d="M 32.488281 63.210938 C 32.496094 63.285156 32.535156 63.335938 32.609375 63.359375 C 33.0625 63.492188 33.503906 63.644531 33.929688 63.808594 C 33.429688 63.765625 32.929688 63.703125 32.429688 63.628906 C 32.410156 63.476562 32.433594 63.335938 32.488281 63.210938 Z M 32.488281 63.210938 "/>
<path style=" stroke:none;fill-rule:evenodd;fill:rgb(70.588237%,70.588237%,70.588237%);fill-opacity:1;" d="M 31.769531 67.171875 C 35.109375 67.160156 38.449219 67.171875 41.789062 67.199219 C 44.621094 67.257812 47.441406 67.457031 50.25 67.800781 C 50.578125 67.855469 50.898438 67.933594 51.210938 68.039062 C 51.402344 68.078125 51.460938 68.175781 51.390625 68.339844 C 51.234375 68.410156 51.074219 68.472656 50.910156 68.519531 C 50.132812 68.664062 49.355469 68.785156 48.570312 68.878906 C 41.3125 69.394531 34.054688 69.453125 26.789062 69.058594 C 25.296875 68.96875 23.816406 68.789062 22.351562 68.519531 C 21.710938 68.328125 21.710938 68.125 22.351562 67.921875 C 23.382812 67.726562 24.421875 67.585938 25.46875 67.5 C 27.578125 67.347656 29.675781 67.238281 31.769531 67.171875 Z M 31.769531 67.171875 "/>
</g>
</svg>
