<?xml version="1.0" encoding="UTF-8"?>
<svg xmlns="http://www.w3.org/2000/svg" xmlns:xlink="http://www.w3.org/1999/xlink" width="192px" height="192px" viewBox="0 0 192 192" version="1.1">
<g id="surface1">
<path style=" stroke:none;fill-rule:evenodd;fill:rgb(99.607843%,99.607843%,99.607843%);fill-opacity:1;" d="M -0.078125 -0.078125 C 63.921875 -0.078125 127.921875 -0.078125 191.921875 -0.078125 C 191.921875 63.921875 191.921875 127.921875 191.921875 191.921875 C 127.921875 191.921875 63.921875 191.921875 -0.078125 191.921875 C -0.078125 127.921875 -0.078125 63.921875 -0.078125 -0.078125 Z M -0.078125 -0.078125 "/>
<path style=" stroke:none;fill-rule:evenodd;fill:rgb(30.588236%,30.588236%,30.588236%);fill-opacity:1;" d="M 100.878906 49.519531 C 100.773438 46.878906 100.773438 44.265625 100.878906 41.679688 C 100.878906 42.90625 100.878906 44.132812 100.878906 45.359375 C 106.152344 43.582031 109.855469 40.117188 112 34.960938 C 114.539062 27.28125 112.859375 20.695312 106.960938 15.199219 C 101.9375 11.265625 96.339844 10.144531 90.160156 11.839844 C 83.832031 14.113281 79.859375 18.515625 78.238281 25.039062 C 77.085938 33.367188 80.042969 39.742188 87.121094 44.160156 C 87.925781 44.640625 88.777344 44.988281 89.679688 45.199219 C 89.679688 43.972656 89.679688 42.746094 89.679688 41.519531 C 89.785156 44.105469 89.785156 46.71875 89.679688 49.359375 C 84.1875 47.84375 79.945312 44.644531 76.960938 39.761719 C 73.675781 33.84375 73.089844 27.65625 75.199219 21.199219 C 79.023438 12.207031 85.824219 7.511719 95.601562 7.121094 C 104.890625 7.511719 111.53125 11.882812 115.519531 20.238281 C 118.351562 27.777344 117.496094 34.871094 112.960938 41.519531 C 109.855469 45.566406 105.828125 48.234375 100.878906 49.519531 Z M 100.878906 49.519531 "/>
<path style=" stroke:none;fill-rule:evenodd;fill:rgb(99.215686%,99.215686%,99.215686%);fill-opacity:1;" d="M 100.878906 41.679688 C 102.046875 41.378906 103.167969 40.953125 104.238281 40.398438 C 104.453125 36.210938 104.453125 32 104.238281 27.761719 C 98.203125 24.351562 92.175781 24.351562 86.160156 27.761719 C 85.949219 31.945312 85.949219 36.105469 86.160156 40.238281 C 87.3125 40.765625 88.484375 41.191406 89.679688 41.519531 C 89.679688 42.746094 89.679688 43.972656 89.679688 45.199219 C 88.777344 44.988281 87.925781 44.640625 87.121094 44.160156 C 80.042969 39.742188 77.085938 33.367188 78.238281 25.039062 C 79.859375 18.515625 83.832031 14.113281 90.160156 11.839844 C 96.339844 10.144531 101.9375 11.265625 106.960938 15.199219 C 112.859375 20.695312 114.539062 27.28125 112 34.960938 C 109.855469 40.117188 106.152344 43.582031 100.878906 45.359375 C 100.878906 44.132812 100.878906 42.90625 100.878906 41.679688 Z M 100.878906 41.679688 "/>
<path style=" stroke:none;fill-rule:evenodd;fill:rgb(30.19608%,30.19608%,30.19608%);fill-opacity:1;" d="M 104.238281 40.398438 C 104.167969 40.246094 104.0625 40.113281 103.921875 40 C 98.195312 37.601562 92.433594 37.550781 86.640625 39.839844 C 86.46875 39.976562 86.308594 40.109375 86.160156 40.238281 C 85.949219 36.105469 85.949219 31.945312 86.160156 27.761719 C 92.175781 24.351562 98.203125 24.351562 104.238281 27.761719 C 104.453125 32 104.453125 36.210938 104.238281 40.398438 Z M 104.238281 40.398438 "/>
<path style=" stroke:none;fill-rule:evenodd;fill:rgb(20%,20%,20%);fill-opacity:1;" d="M 104.238281 40.398438 C 103.167969 40.953125 102.046875 41.378906 100.878906 41.679688 C 100.773438 44.265625 100.773438 46.878906 100.878906 49.519531 C 100.722656 50.449219 100.667969 51.410156 100.71875 52.398438 C 97.089844 52.355469 93.464844 52.410156 89.839844 52.558594 C 89.890625 51.515625 89.839844 50.503906 89.679688 49.519531 C 89.679688 49.464844 89.679688 49.414062 89.679688 49.359375 C 89.785156 46.71875 89.785156 44.105469 89.679688 41.519531 C 88.484375 41.191406 87.3125 40.765625 86.160156 40.238281 C 86.308594 40.109375 86.46875 39.976562 86.640625 39.839844 C 92.433594 37.550781 98.195312 37.601562 103.921875 40 C 104.0625 40.113281 104.167969 40.246094 104.238281 40.398438 Z M 104.238281 40.398438 "/>
<path style=" stroke:none;fill-rule:evenodd;fill:rgb(30.588236%,30.588236%,30.588236%);fill-opacity:1;" d="M 89.679688 49.519531 C 89.839844 50.503906 89.890625 51.515625 89.839844 52.558594 C 93.464844 52.410156 97.089844 52.355469 100.71875 52.398438 C 100.667969 51.410156 100.722656 50.449219 100.878906 49.519531 C 100.878906 50.535156 100.878906 51.546875 100.878906 52.558594 C 113.460938 53.605469 124.714844 57.980469 134.640625 65.679688 C 136.292969 64.109375 137.917969 62.507812 139.519531 60.878906 C 139.480469 60.457031 139.480469 60.03125 139.519531 59.601562 C 142 57.011719 144.480469 54.425781 146.960938 51.839844 C 150.691406 52.316406 153.28125 54.316406 154.71875 57.839844 C 155.160156 58.8125 155.375 59.828125 155.359375 60.878906 C 152.613281 63.199219 149.867188 65.519531 147.121094 67.839844 C 146.703125 67.914062 146.359375 67.78125 146.078125 67.441406 C 144.476562 68.910156 142.90625 70.402344 141.359375 71.921875 C 154.878906 86.855469 160.238281 104.347656 157.441406 124.398438 C 154.046875 143.300781 144.261719 157.832031 128.078125 168 C 112.957031 176.710938 96.902344 179.007812 79.921875 174.878906 C 61.203125 169.441406 47.628906 157.945312 39.199219 140.398438 C 32.617188 125.148438 31.925781 109.628906 37.121094 93.839844 C 40.066406 85.78125 44.414062 78.605469 50.160156 72.320312 C 48.609375 70.714844 47.007812 69.167969 45.359375 67.679688 C 44.953125 67.582031 44.582031 67.660156 44.238281 67.921875 C 41.394531 65.628906 38.59375 63.285156 35.839844 60.878906 C 36.21875 56.792969 38.269531 53.886719 42 52.160156 C 42.714844 51.816406 43.460938 51.710938 44.238281 51.839844 C 46.777344 54.433594 49.253906 57.074219 51.679688 59.761719 C 51.75 60.105469 51.667969 60.425781 51.441406 60.71875 C 53.195312 62.527344 55.007812 64.289062 56.878906 66 C 66.492188 58.398438 77.425781 53.917969 89.679688 52.558594 C 89.679688 51.546875 89.679688 50.535156 89.679688 49.519531 Z M 89.679688 49.519531 "/>
<path style=" stroke:none;fill-rule:evenodd;fill:rgb(69.803923%,69.803923%,69.803923%);fill-opacity:1;" d="M 95.761719 63.441406 C 95.601562 62.617188 95.546875 61.765625 95.601562 60.878906 C 92.839844 61.316406 90.121094 61.929688 87.441406 62.71875 C 87.238281 62.785156 87.132812 62.921875 87.121094 63.121094 C 86.953125 62.039062 86.738281 60.945312 86.480469 59.839844 C 86.503906 59.714844 86.554688 59.609375 86.640625 59.519531 C 89.65625 58.996094 92.699219 58.757812 95.761719 58.800781 C 95.761719 60.347656 95.761719 61.894531 95.761719 63.441406 Z M 95.761719 63.441406 "/>
<path style=" stroke:none;fill-rule:evenodd;fill:rgb(69.411767%,69.411767%,69.411767%);fill-opacity:1;" d="M 105.199219 60.398438 C 104.648438 60.1875 104.035156 60.082031 103.359375 60.078125 C 101.082031 60.148438 98.816406 60.335938 96.558594 60.640625 C 96.300781 61.554688 96.140625 62.488281 96.078125 63.441406 C 96.078125 61.894531 96.078125 60.347656 96.078125 58.800781 C 99.199219 58.816406 102.292969 59.082031 105.359375 59.601562 C 105.40625 59.90625 105.351562 60.171875 105.199219 60.398438 Z M 105.199219 60.398438 "/>
<path style=" stroke:none;fill-rule:evenodd;fill:rgb(70.19608%,70.19608%,70.19608%);fill-opacity:1;" d="M 86.640625 63.121094 C 85.832031 63.308594 85.03125 63.550781 84.238281 63.839844 C 82.332031 64.582031 80.464844 65.40625 78.640625 66.320312 C 78.050781 64.875 77.570312 63.4375 77.199219 62 C 80.101562 60.902344 83.089844 60.15625 86.160156 59.761719 C 86.257812 60.890625 86.417969 62.007812 86.640625 63.121094 Z M 86.640625 63.121094 "/>
<path style=" stroke:none;fill-rule:evenodd;fill:rgb(90.588236%,90.588236%,90.588236%);fill-opacity:1;" d="M 151.601562 110.640625 C 151.601562 111.867188 151.601562 113.09375 151.601562 114.320312 C 150.078125 114.269531 148.585938 114.320312 147.121094 114.480469 C 148.605469 114.796875 150.152344 114.902344 151.761719 114.800781 C 151.703125 117.914062 151.4375 121.007812 150.960938 124.078125 C 149.410156 123.832031 147.863281 123.5625 146.320312 123.28125 C 146.320312 123.441406 146.320312 123.601562 146.320312 123.761719 C 147.808594 124.007812 149.300781 124.222656 150.800781 124.398438 C 150.335938 127.40625 149.589844 130.339844 148.558594 133.199219 C 147.070312 133.042969 145.632812 132.617188 144.238281 131.921875 C 144.1875 132 144.132812 132.078125 144.078125 132.160156 C 144.230469 132.394531 144.445312 132.554688 144.71875 132.640625 C 145.96875 132.976562 147.140625 133.457031 148.238281 134.078125 C 147.210938 136.960938 145.90625 139.710938 144.320312 142.320312 C 143.132812 141.578125 141.933594 140.859375 140.71875 140.160156 C 140.539062 140.039062 140.378906 140.066406 140.238281 140.238281 C 141.519531 141.09375 142.800781 141.945312 144.078125 142.800781 C 143.027344 144.625 141.882812 146.386719 140.640625 148.078125 C 140.046875 148.832031 139.40625 149.523438 138.71875 150.160156 C 137.636719 149.34375 136.59375 148.460938 135.601562 147.519531 C 135.417969 147.398438 135.257812 147.425781 135.121094 147.601562 C 136.136719 148.644531 137.230469 149.605469 138.398438 150.480469 C 138.335938 150.820312 138.175781 151.140625 137.921875 151.441406 C 136.101562 153.527344 134.128906 155.445312 132 157.199219 C 130.988281 156.027344 129.972656 154.851562 128.960938 153.679688 C 128.761719 153.804688 128.710938 153.964844 128.800781 154.160156 C 129.714844 155.269531 130.648438 156.363281 131.601562 157.441406 C 129.261719 159.460938 126.753906 161.25 124.078125 162.800781 C 123.328125 161.59375 122.609375 160.367188 121.921875 159.121094 C 121.730469 158.921875 121.542969 158.921875 121.359375 159.121094 C 122.175781 160.429688 122.894531 161.765625 123.519531 163.121094 C 120.832031 164.636719 118.03125 165.917969 115.121094 166.960938 C 114.773438 165.4375 114.238281 164 113.519531 162.640625 C 113.464844 162.746094 113.414062 162.851562 113.359375 162.960938 C 113.808594 164.304688 114.289062 165.636719 114.800781 166.960938 C 111.980469 168.1875 109.046875 169.039062 106 169.519531 C 105.660156 168.007812 105.285156 166.511719 104.878906 165.039062 C 104.828125 165.199219 104.773438 165.359375 104.71875 165.519531 C 104.96875 166.902344 105.183594 168.292969 105.359375 169.679688 C 103.707031 169.84375 102.050781 170.03125 100.398438 170.238281 C 98.960938 170.320312 97.519531 170.347656 96.078125 170.320312 C 96.183594 168.761719 96.074219 167.269531 95.761719 165.839844 C 95.601562 167.304688 95.546875 168.796875 95.601562 170.320312 C 94.960938 170.320312 94.320312 170.320312 93.679688 170.320312 C 92.609375 170.335938 91.542969 170.285156 90.480469 170.160156 C 89.339844 169.714844 88.167969 169.3125 86.960938 168.960938 C 86.757812 168.894531 86.652344 168.761719 86.640625 168.558594 C 86.808594 167.578125 86.96875 166.589844 87.121094 165.601562 C 87.066406 165.414062 87.011719 165.226562 86.960938 165.039062 C 86.589844 166.1875 86.324219 167.359375 86.160156 168.558594 C 83.246094 167.730469 80.472656 166.558594 77.839844 165.039062 C 78.027344 164.289062 78.292969 163.570312 78.640625 162.878906 C 78.492188 162.640625 78.332031 162.613281 78.160156 162.800781 C 77.890625 163.457031 77.621094 164.097656 77.359375 164.71875 C 74.726562 163.359375 72.324219 161.707031 70.160156 159.761719 C 70.191406 159.511719 70.300781 159.300781 70.480469 159.121094 C 70.035156 158.917969 69.765625 159.078125 69.679688 159.601562 C 56.707031 148.957031 49.691406 135.199219 48.640625 118.320312 C 48.226562 100.675781 54.492188 85.929688 67.441406 74.078125 C 70.859375 71.144531 74.539062 68.613281 78.480469 66.480469 C 78.585938 66.480469 78.640625 66.425781 78.640625 66.320312 C 80.464844 65.40625 82.332031 64.582031 84.238281 63.839844 C 85.03125 63.550781 85.832031 63.308594 86.640625 63.121094 C 86.71875 63.488281 86.773438 63.863281 86.800781 64.238281 C 86.960938 64.238281 87.121094 64.238281 87.28125 64.238281 C 87.289062 63.855469 87.234375 63.480469 87.121094 63.121094 C 87.132812 62.921875 87.238281 62.785156 87.441406 62.71875 C 90.121094 61.929688 92.839844 61.316406 95.601562 60.878906 C 95.546875 61.765625 95.601562 62.617188 95.761719 63.441406 C 95.867188 63.441406 95.972656 63.441406 96.078125 63.441406 C 96.140625 62.488281 96.300781 61.554688 96.558594 60.640625 C 98.816406 60.335938 101.082031 60.148438 103.359375 60.078125 C 104.035156 60.082031 104.648438 60.1875 105.199219 60.398438 C 104.910156 61.621094 104.804688 62.847656 104.878906 64.078125 C 105.265625 62.773438 105.558594 61.441406 105.761719 60.078125 C 105.867188 59.90625 106.027344 59.800781 106.238281 59.761719 C 109.164062 60.300781 112.019531 61.101562 114.800781 62.160156 C 114.371094 63.394531 113.917969 64.621094 113.441406 65.839844 C 113.316406 66.070312 113.339844 66.285156 113.519531 66.480469 C 114.101562 65.238281 114.609375 63.957031 115.039062 62.640625 C 115.101562 62.492188 115.207031 62.386719 115.359375 62.320312 C 118.253906 63.351562 121 64.660156 123.601562 66.238281 C 122.851562 67.519531 122.105469 68.800781 121.359375 70.078125 C 121.445312 70.191406 121.550781 70.269531 121.679688 70.320312 C 122.488281 69.105469 123.234375 67.851562 123.921875 66.558594 C 124.359375 66.613281 124.789062 66.773438 125.199219 67.039062 C 127.480469 68.421875 129.613281 69.992188 131.601562 71.761719 C 130.578125 72.886719 129.621094 74.058594 128.71875 75.28125 C 128.800781 75.332031 128.878906 75.386719 128.960938 75.441406 C 129.964844 74.328125 130.980469 73.207031 132 72.078125 C 134.34375 74.023438 136.5 76.15625 138.480469 78.480469 C 137.460938 79.523438 136.367188 80.484375 135.199219 81.359375 C 135.082031 81.542969 135.105469 81.703125 135.28125 81.839844 C 136.453125 80.878906 137.625 79.921875 138.800781 78.960938 C 140.746094 81.199219 142.476562 83.601562 144 86.160156 C 144.121094 86.339844 144.09375 86.5 143.921875 86.640625 C 142.773438 87.347656 141.597656 88.015625 140.398438 88.640625 C 140.203125 88.828125 140.203125 89.015625 140.398438 89.199219 C 141.679688 88.453125 142.960938 87.707031 144.238281 86.960938 C 144.664062 87.378906 145.007812 87.859375 145.28125 88.398438 C 146.472656 90.621094 147.429688 92.914062 148.160156 95.28125 C 146.828125 95.839844 145.46875 96.320312 144.078125 96.71875 C 144.078125 96.878906 144.078125 97.039062 144.078125 97.199219 C 145.503906 96.769531 146.917969 96.289062 148.320312 95.761719 C 149.589844 98.605469 150.417969 101.589844 150.800781 104.71875 C 149.3125 104.984375 147.820312 105.199219 146.320312 105.359375 C 146.320312 105.519531 146.320312 105.679688 146.320312 105.839844 C 147.863281 105.582031 149.410156 105.394531 150.960938 105.28125 C 151.308594 107.042969 151.523438 108.832031 151.601562 110.640625 Z M 151.601562 110.640625 "/>
<path style=" stroke:none;fill-rule:evenodd;fill:rgb(70.19608%,70.19608%,70.19608%);fill-opacity:1;" d="M 78.480469 66.480469 C 74.539062 68.613281 70.859375 71.144531 67.441406 74.078125 C 54.492188 85.929688 48.226562 100.675781 48.640625 118.320312 C 49.691406 135.199219 56.707031 148.957031 69.679688 159.601562 C 69.042969 160.664062 68.402344 161.730469 67.761719 162.800781 C 65.121094 161.226562 62.613281 159.464844 60.238281 157.519531 C 61.171875 156.398438 62.105469 155.28125 63.039062 154.160156 C 63.128906 153.964844 63.078125 153.804688 62.878906 153.679688 C 61.867188 154.851562 60.851562 156.027344 59.839844 157.199219 C 57.492188 155.199219 55.332031 153.011719 53.359375 150.640625 C 54.511719 149.625 55.683594 148.636719 56.878906 147.679688 C 56.628906 147.398438 56.363281 147.398438 56.078125 147.679688 C 55.171875 148.480469 54.265625 149.28125 53.359375 150.078125 C 52.976562 150.179688 52.683594 150.046875 52.480469 149.679688 C 50.75 147.496094 49.175781 145.203125 47.761719 142.800781 C 49.0625 142.007812 50.339844 141.179688 51.601562 140.320312 C 51.546875 140.238281 51.492188 140.160156 51.441406 140.078125 C 50.09375 140.765625 48.789062 141.511719 47.519531 142.320312 C 46.074219 139.746094 44.792969 137.078125 43.679688 134.320312 C 43.558594 134.136719 43.585938 133.976562 43.761719 133.839844 C 44.960938 133.3125 46.1875 132.859375 47.441406 132.480469 C 47.746094 132.347656 47.796875 132.160156 47.601562 131.921875 C 46.1875 132.496094 44.746094 132.976562 43.28125 133.359375 C 42.332031 130.421875 41.585938 127.433594 41.039062 124.398438 C 42.535156 124.1875 44.027344 123.972656 45.519531 123.761719 C 45.519531 123.601562 45.519531 123.441406 45.519531 123.28125 C 44.015625 123.496094 42.523438 123.761719 41.039062 124.078125 C 40.464844 121.015625 40.148438 117.921875 40.078125 114.800781 C 41.6875 114.902344 43.234375 114.796875 44.71875 114.480469 C 43.253906 114.320312 41.761719 114.269531 40.238281 114.320312 C 40.238281 113.199219 40.238281 112.078125 40.238281 110.960938 C 40.308594 109.074219 40.523438 107.207031 40.878906 105.359375 C 41.011719 105.308594 41.148438 105.253906 41.28125 105.199219 C 42.507812 105.414062 43.734375 105.625 44.960938 105.839844 C 45.148438 105.785156 45.332031 105.734375 45.519531 105.679688 C 44.167969 105.300781 42.78125 105.007812 41.359375 104.800781 C 41.179688 104.664062 41.074219 104.480469 41.039062 104.238281 C 41.625 101.371094 42.371094 98.542969 43.28125 95.761719 C 44.570312 96.164062 45.851562 96.617188 47.121094 97.121094 C 47.351562 97.246094 47.5625 97.21875 47.761719 97.039062 C 46.433594 96.410156 45.074219 95.824219 43.679688 95.28125 C 43.953125 94.195312 44.324219 93.128906 44.800781 92.078125 C 45.613281 90.289062 46.546875 88.585938 47.601562 86.960938 C 48.878906 87.707031 50.160156 88.453125 51.441406 89.199219 C 51.636719 89.015625 51.636719 88.828125 51.441406 88.640625 C 50.160156 88 48.933594 87.28125 47.761719 86.480469 C 49.25 83.847656 50.957031 81.367188 52.878906 79.039062 C 53.222656 79.105469 53.539062 79.265625 53.839844 79.519531 C 54.722656 80.324219 55.628906 81.097656 56.558594 81.839844 C 56.734375 81.703125 56.761719 81.542969 56.640625 81.359375 C 55.503906 80.484375 54.410156 79.550781 53.359375 78.558594 C 55.308594 76.15625 57.496094 73.996094 59.921875 72.078125 C 60.820312 73.144531 61.730469 74.210938 62.640625 75.28125 C 62.800781 75.492188 62.960938 75.492188 63.121094 75.28125 C 62.277344 74.089844 61.34375 72.96875 60.320312 71.921875 C 60.238281 71.679688 60.320312 71.492188 60.558594 71.359375 C 62.839844 69.59375 65.210938 67.96875 67.679688 66.480469 C 67.804688 66.503906 67.910156 66.554688 68 66.640625 C 68.6875 67.910156 69.433594 69.136719 70.238281 70.320312 C 70.320312 70.265625 70.398438 70.214844 70.480469 70.160156 C 69.769531 68.835938 69.023438 67.527344 68.238281 66.238281 C 70.707031 64.6875 73.320312 63.40625 76.078125 62.398438 C 76.3125 62.273438 76.523438 62.300781 76.71875 62.480469 C 77.1875 63.699219 77.640625 64.925781 78.078125 66.160156 C 78.148438 66.359375 78.28125 66.46875 78.480469 66.480469 Z M 78.480469 66.480469 "/>
<path style=" stroke:none;fill-rule:evenodd;fill:rgb(85.882354%,45.490196%,43.921569%);fill-opacity:1;" d="M 129.199219 85.679688 C 129.421875 85.269531 129.742188 85.027344 130.160156 84.960938 C 129.902344 85.300781 129.582031 85.539062 129.199219 85.679688 Z M 129.199219 85.679688 "/>
<path style=" stroke:none;fill-rule:evenodd;fill:rgb(81.960785%,16.078432%,15.686275%);fill-opacity:1;" d="M 129.199219 85.679688 C 119.726562 94.3125 110.179688 102.871094 100.558594 111.359375 C 101.734375 113.90625 101.308594 116.148438 99.28125 118.078125 C 97.257812 119.332031 95.179688 119.4375 93.039062 118.398438 C 90.714844 116.539062 90.101562 114.222656 91.199219 111.441406 C 93.0625 108.703125 95.542969 107.929688 98.640625 109.121094 C 108.808594 101.269531 118.996094 93.453125 129.199219 85.679688 Z M 129.199219 85.679688 "/>
<path style=" stroke:none;fill-rule:evenodd;fill:rgb(31.37255%,30.19608%,30.19608%);fill-opacity:1;" d="M 95.28125 112.078125 C 96.324219 111.859375 97.148438 112.179688 97.761719 113.039062 C 98.242188 114.691406 97.628906 115.652344 95.921875 115.921875 C 94.472656 115.589844 93.914062 114.683594 94.238281 113.199219 C 94.511719 112.742188 94.859375 112.371094 95.28125 112.078125 Z M 95.28125 112.078125 "/>
<path style=" stroke:none;fill-rule:evenodd;fill:rgb(49.019608%,49.019608%,49.019608%);fill-opacity:1;" d="M 40.238281 110.960938 C 40.238281 112.078125 40.238281 113.199219 40.238281 114.320312 C 41.761719 114.269531 43.253906 114.320312 44.71875 114.480469 C 43.171875 114.480469 41.625 114.480469 40.078125 114.480469 C 40.027344 113.277344 40.082031 112.105469 40.238281 110.960938 Z M 40.238281 110.960938 "/>
<path style=" stroke:none;fill-rule:evenodd;fill:rgb(59.215689%,59.215689%,59.215689%);fill-opacity:1;" d="M 151.601562 110.640625 C 151.757812 111.890625 151.8125 113.171875 151.761719 114.480469 C 150.214844 114.480469 148.667969 114.480469 147.121094 114.480469 C 148.585938 114.320312 150.078125 114.269531 151.601562 114.320312 C 151.601562 113.09375 151.601562 111.867188 151.601562 110.640625 Z M 151.601562 110.640625 "/>
<path style=" stroke:none;fill-rule:evenodd;fill:rgb(70.19608%,70.19608%,70.19608%);fill-opacity:1;" d="M 70.160156 159.761719 C 72.324219 161.707031 74.726562 163.359375 77.359375 164.71875 C 77.113281 165.457031 76.902344 166.203125 76.71875 166.960938 C 73.796875 165.941406 70.996094 164.664062 68.320312 163.121094 C 68.84375 161.96875 69.457031 160.847656 70.160156 159.761719 Z M 70.160156 159.761719 "/>
<path style=" stroke:none;fill-rule:evenodd;fill:rgb(69.803923%,69.803923%,69.803923%);fill-opacity:1;" d="M 77.839844 165.039062 C 80.472656 166.558594 83.246094 167.730469 86.160156 168.558594 C 86.105469 168.878906 86.054688 169.199219 86 169.519531 C 82.992188 169.023438 80.0625 168.246094 77.199219 167.199219 C 77.125 167.132812 77.074219 167.054688 77.039062 166.960938 C 77.3125 166.304688 77.578125 165.664062 77.839844 165.039062 Z M 77.839844 165.039062 "/>
<path style=" stroke:none;fill-rule:evenodd;fill:rgb(64.313728%,64.313728%,64.313728%);fill-opacity:1;" d="M 95.761719 165.839844 C 95.761719 167.386719 95.761719 168.933594 95.761719 170.480469 C 95.035156 170.53125 94.339844 170.476562 93.679688 170.320312 C 94.320312 170.320312 94.960938 170.320312 95.601562 170.320312 C 95.546875 168.796875 95.601562 167.304688 95.761719 165.839844 Z M 95.761719 165.839844 "/>
<path style=" stroke:none;fill-rule:evenodd;fill:rgb(67.450982%,67.450982%,67.450982%);fill-opacity:1;" d="M 86.640625 168.558594 C 86.652344 168.761719 86.757812 168.894531 86.960938 168.960938 C 88.167969 169.3125 89.339844 169.714844 90.480469 170.160156 C 89.140625 170.039062 87.808594 169.878906 86.480469 169.679688 C 86.433594 169.269531 86.484375 168.898438 86.640625 168.558594 Z M 86.640625 168.558594 "/>
<path style=" stroke:none;fill-rule:evenodd;fill:rgb(70.588237%,70.588237%,70.588237%);fill-opacity:1;" d="M 84.71875 179.121094 C 93.625 179.09375 102.535156 179.121094 111.441406 179.199219 C 118.988281 179.355469 126.507812 179.886719 134 180.800781 C 134.871094 180.945312 135.722656 181.160156 136.558594 181.441406 C 137.074219 181.539062 137.234375 181.804688 137.039062 182.238281 C 136.625 182.433594 136.199219 182.59375 135.761719 182.71875 C 133.691406 183.105469 131.609375 183.425781 129.519531 183.679688 C 110.171875 185.050781 90.8125 185.210938 71.441406 184.160156 C 67.460938 183.921875 63.515625 183.441406 59.601562 182.71875 C 57.898438 182.203125 57.898438 181.671875 59.601562 181.121094 C 62.351562 180.601562 65.125 180.226562 67.921875 180 C 73.539062 179.589844 79.140625 179.296875 84.71875 179.121094 Z M 84.71875 179.121094 "/>
</g>
</svg>
