<?xml version="1.0" encoding="UTF-8"?>
<svg xmlns="http://www.w3.org/2000/svg" xmlns:xlink="http://www.w3.org/1999/xlink" width="512px" height="512px" viewBox="0 0 512 512" version="1.1">
<g id="surface1">
<path style=" stroke:none;fill-rule:evenodd;fill:rgb(99.607843%,99.607843%,99.607843%);fill-opacity:1;" d="M -0.214844 -0.214844 C 170.453125 -0.214844 341.121094 -0.214844 511.785156 -0.214844 C 511.785156 170.453125 511.785156 341.121094 511.785156 511.785156 C 341.121094 511.785156 170.453125 511.785156 -0.214844 511.785156 C -0.214844 341.121094 -0.214844 170.453125 -0.214844 -0.214844 Z M -0.214844 -0.214844 "/>
<path style=" stroke:none;fill-rule:evenodd;fill:rgb(30.588236%,30.588236%,30.588236%);fill-opacity:1;" d="M 269.011719 132.054688 C 268.734375 125.011719 268.734375 118.042969 269.011719 111.148438 C 269.011719 114.417969 269.011719 117.6875 269.011719 120.960938 C 283.066406 116.222656 292.953125 106.976562 298.667969 93.226562 C 305.441406 72.75 300.960938 55.1875 285.226562 40.535156 C 271.835938 30.039062 256.902344 27.054688 240.425781 31.574219 C 223.554688 37.636719 212.957031 49.371094 208.640625 66.773438 C 205.558594 88.980469 213.453125 105.976562 232.320312 117.761719 C 234.464844 119.046875 236.738281 119.972656 239.148438 120.535156 C 239.148438 117.261719 239.148438 113.992188 239.148438 110.71875 C 239.425781 117.617188 239.425781 124.585938 239.148438 131.625 C 224.5 127.582031 213.191406 119.046875 205.226562 106.027344 C 196.46875 90.246094 194.902344 73.746094 200.535156 56.535156 C 210.734375 32.550781 228.867188 20.035156 254.933594 18.988281 C 279.710938 20.027344 297.417969 31.6875 308.054688 53.972656 C 315.601562 74.074219 313.324219 92.988281 301.226562 110.71875 C 292.945312 121.511719 282.207031 128.621094 269.011719 132.054688 Z M 269.011719 132.054688 "/>
<path style=" stroke:none;fill-rule:evenodd;fill:rgb(99.215686%,99.215686%,99.215686%);fill-opacity:1;" d="M 269.011719 111.148438 C 272.128906 110.34375 275.113281 109.207031 277.972656 107.734375 C 278.539062 96.566406 278.539062 85.332031 277.972656 74.027344 C 261.875 64.933594 245.804688 64.933594 229.761719 74.027344 C 229.191406 85.191406 229.191406 96.285156 229.761719 107.308594 C 232.832031 108.707031 235.960938 109.84375 239.148438 110.71875 C 239.148438 113.992188 239.148438 117.261719 239.148438 120.535156 C 236.738281 119.972656 234.464844 119.046875 232.320312 117.761719 C 213.453125 105.976562 205.558594 88.980469 208.640625 66.773438 C 212.957031 49.371094 223.554688 37.636719 240.425781 31.574219 C 256.902344 27.054688 271.835938 30.039062 285.226562 40.535156 C 300.960938 55.1875 305.441406 72.75 298.667969 93.226562 C 292.953125 106.976562 283.066406 116.222656 269.011719 120.960938 C 269.011719 117.6875 269.011719 114.417969 269.011719 111.148438 Z M 269.011719 111.148438 "/>
<path style=" stroke:none;fill-rule:evenodd;fill:rgb(30.19608%,30.19608%,30.19608%);fill-opacity:1;" d="M 277.972656 107.734375 C 277.78125 107.324219 277.496094 106.96875 277.121094 106.667969 C 261.855469 100.273438 246.496094 100.132812 231.039062 106.238281 C 230.582031 106.605469 230.15625 106.957031 229.761719 107.308594 C 229.191406 96.285156 229.191406 85.191406 229.761719 74.027344 C 245.804688 64.933594 261.875 64.933594 277.972656 74.027344 C 278.539062 85.332031 278.539062 96.566406 277.972656 107.734375 Z M 277.972656 107.734375 "/>
<path style=" stroke:none;fill-rule:evenodd;fill:rgb(20%,20%,20%);fill-opacity:1;" d="M 277.972656 107.734375 C 275.113281 109.207031 272.128906 110.34375 269.011719 111.148438 C 268.734375 118.042969 268.734375 125.011719 269.011719 132.054688 C 268.589844 134.53125 268.449219 137.09375 268.585938 139.734375 C 258.90625 139.613281 249.234375 139.757812 239.574219 140.160156 C 239.710938 137.378906 239.570312 134.675781 239.148438 132.054688 C 239.148438 131.910156 239.148438 131.769531 239.148438 131.625 C 239.425781 124.585938 239.425781 117.617188 239.148438 110.71875 C 235.960938 109.84375 232.832031 108.707031 229.761719 107.308594 C 230.15625 106.957031 230.582031 106.605469 231.039062 106.238281 C 246.496094 100.132812 261.855469 100.273438 277.121094 106.667969 C 277.496094 106.96875 277.78125 107.324219 277.972656 107.734375 Z M 277.972656 107.734375 "/>
<path style=" stroke:none;fill-rule:evenodd;fill:rgb(30.588236%,30.588236%,30.588236%);fill-opacity:1;" d="M 239.148438 132.054688 C 239.570312 134.675781 239.710938 137.378906 239.574219 140.160156 C 249.234375 139.757812 258.90625 139.613281 268.585938 139.734375 C 268.449219 137.09375 268.589844 134.53125 269.011719 132.054688 C 269.011719 134.753906 269.011719 137.457031 269.011719 140.160156 C 302.5625 142.949219 332.570312 154.609375 359.039062 175.148438 C 363.441406 170.957031 367.78125 166.691406 372.054688 162.347656 C 371.945312 161.222656 371.945312 160.085938 372.054688 158.933594 C 378.667969 152.035156 385.28125 145.136719 391.894531 138.238281 C 401.847656 139.507812 408.746094 144.84375 412.585938 154.238281 C 413.761719 156.835938 414.328125 159.539062 414.292969 162.347656 C 406.96875 168.535156 399.644531 174.71875 392.320312 180.90625 C 391.210938 181.101562 390.289062 180.746094 389.546875 179.839844 C 385.273438 183.757812 381.078125 187.738281 376.960938 191.785156 C 413.011719 231.609375 427.300781 278.257812 419.839844 331.734375 C 410.792969 382.132812 384.695312 420.890625 341.546875 448 C 301.21875 471.230469 258.410156 477.351562 213.121094 466.347656 C 163.203125 451.839844 127.007812 421.191406 104.535156 374.398438 C 86.980469 333.726562 85.132812 292.339844 98.988281 250.238281 C 106.847656 228.746094 118.4375 209.617188 133.761719 192.851562 C 129.621094 188.574219 125.355469 184.449219 120.960938 180.480469 C 119.878906 180.214844 118.882812 180.429688 117.972656 181.121094 C 110.386719 175.015625 102.921875 168.757812 95.574219 162.347656 C 96.578125 151.449219 102.054688 143.699219 112 139.09375 C 113.90625 138.179688 115.898438 137.894531 117.972656 138.238281 C 124.734375 145.15625 131.347656 152.199219 137.8125 159.359375 C 137.996094 160.285156 137.78125 161.140625 137.171875 161.921875 C 141.855469 166.746094 146.691406 171.4375 151.679688 176 C 177.3125 155.726562 206.46875 143.777344 239.148438 140.160156 C 239.148438 137.457031 239.148438 134.753906 239.148438 132.054688 Z M 239.148438 132.054688 "/>
<path style=" stroke:none;fill-rule:evenodd;fill:rgb(69.803923%,69.803923%,69.803923%);fill-opacity:1;" d="M 255.359375 169.171875 C 254.9375 166.980469 254.796875 164.703125 254.933594 162.347656 C 247.574219 163.511719 240.320312 165.144531 233.171875 167.253906 C 232.636719 167.429688 232.351562 167.785156 232.320312 168.320312 C 231.871094 165.441406 231.300781 162.527344 230.613281 159.574219 C 230.675781 159.242188 230.816406 158.960938 231.039062 158.71875 C 239.089844 157.324219 247.195312 156.683594 255.359375 156.800781 C 255.359375 160.925781 255.359375 165.046875 255.359375 169.171875 Z M 255.359375 169.171875 "/>
<path style=" stroke:none;fill-rule:evenodd;fill:rgb(69.411767%,69.411767%,69.411767%);fill-opacity:1;" d="M 280.535156 161.066406 C 279.066406 160.503906 277.429688 160.21875 275.625 160.214844 C 269.554688 160.398438 263.511719 160.894531 257.492188 161.707031 C 256.804688 164.152344 256.378906 166.640625 256.214844 169.171875 C 256.214844 165.046875 256.214844 160.925781 256.214844 156.800781 C 264.527344 156.84375 272.777344 157.554688 280.960938 158.933594 C 281.082031 159.75 280.9375 160.460938 280.535156 161.066406 Z M 280.535156 161.066406 "/>
<path style=" stroke:none;fill-rule:evenodd;fill:rgb(70.19608%,70.19608%,70.19608%);fill-opacity:1;" d="M 231.039062 168.320312 C 228.882812 168.824219 226.75 169.464844 224.640625 170.238281 C 219.550781 172.214844 214.574219 174.417969 209.707031 176.851562 C 208.136719 173.003906 206.859375 169.164062 205.867188 165.332031 C 213.605469 162.402344 221.570312 160.414062 229.761719 159.359375 C 230.019531 162.371094 230.449219 165.359375 231.039062 168.320312 Z M 231.039062 168.320312 "/>
<path style=" stroke:none;fill-rule:evenodd;fill:rgb(90.588236%,90.588236%,90.588236%);fill-opacity:1;" d="M 404.265625 295.039062 C 404.265625 298.3125 404.265625 301.582031 404.265625 304.851562 C 400.207031 304.714844 396.226562 304.855469 392.320312 305.28125 C 396.277344 306.121094 400.402344 306.40625 404.691406 306.132812 C 404.546875 314.433594 403.835938 322.683594 402.558594 330.878906 C 398.425781 330.214844 394.300781 329.503906 390.1875 328.746094 C 390.1875 329.171875 390.1875 329.601562 390.1875 330.027344 C 394.15625 330.6875 398.140625 331.257812 402.132812 331.734375 C 400.898438 339.753906 398.90625 347.578125 396.160156 355.199219 C 392.191406 354.78125 388.351562 353.644531 384.640625 351.785156 C 384.496094 352 384.355469 352.214844 384.214844 352.425781 C 384.617188 353.058594 385.183594 353.484375 385.921875 353.707031 C 389.25 354.605469 392.378906 355.882812 395.308594 357.546875 C 392.566406 365.234375 389.082031 372.558594 384.851562 379.519531 C 381.6875 377.546875 378.488281 375.625 375.253906 373.761719 C 374.769531 373.441406 374.34375 373.511719 373.972656 373.972656 C 377.386719 376.25 380.800781 378.523438 384.214844 380.800781 C 381.40625 385.667969 378.351562 390.359375 375.039062 394.878906 C 373.460938 396.882812 371.753906 398.734375 369.921875 400.425781 C 367.027344 398.246094 364.253906 395.898438 361.601562 393.386719 C 361.117188 393.066406 360.6875 393.136719 360.320312 393.601562 C 363.035156 396.386719 365.949219 398.945312 369.066406 401.28125 C 368.898438 402.1875 368.46875 403.042969 367.785156 403.839844 C 362.9375 409.402344 357.675781 414.519531 352 419.199219 C 349.296875 416.070312 346.59375 412.941406 343.894531 409.8125 C 343.367188 410.144531 343.226562 410.570312 343.464844 411.09375 C 345.90625 414.046875 348.394531 416.964844 350.933594 419.839844 C 344.699219 425.234375 338.015625 430 330.878906 434.132812 C 328.875 430.917969 326.957031 427.648438 325.121094 424.320312 C 324.617188 423.792969 324.117188 423.792969 323.625 424.320312 C 325.800781 427.8125 327.71875 431.371094 329.386719 434.988281 C 322.21875 439.03125 314.753906 442.445312 306.988281 445.226562 C 306.0625 441.167969 304.640625 437.328125 302.71875 433.707031 C 302.578125 433.992188 302.433594 434.273438 302.292969 434.558594 C 303.488281 438.144531 304.769531 441.703125 306.132812 445.226562 C 298.617188 448.496094 290.792969 450.769531 282.667969 452.054688 C 281.757812 448.015625 280.765625 444.035156 279.679688 440.105469 C 279.539062 440.535156 279.394531 440.960938 279.253906 441.386719 C 279.914062 445.078125 280.484375 448.777344 280.960938 452.480469 C 276.546875 452.917969 272.140625 453.417969 267.734375 453.972656 C 263.894531 454.1875 260.054688 454.257812 256.214844 454.1875 C 256.484375 450.035156 256.203125 446.054688 255.359375 442.238281 C 254.9375 446.144531 254.792969 450.128906 254.933594 454.1875 C 253.226562 454.1875 251.519531 454.1875 249.8125 454.1875 C 246.957031 454.234375 244.113281 454.09375 241.28125 453.761719 C 238.242188 452.570312 235.113281 451.503906 231.894531 450.558594 C 231.359375 450.378906 231.074219 450.027344 231.039062 449.492188 C 231.488281 446.875 231.914062 444.242188 232.320312 441.601562 C 232.179688 441.101562 232.035156 440.605469 231.894531 440.105469 C 230.910156 443.160156 230.199219 446.292969 229.761719 449.492188 C 221.992188 447.28125 214.597656 444.152344 207.574219 440.105469 C 208.074219 438.105469 208.785156 436.1875 209.707031 434.347656 C 209.3125 433.710938 208.886719 433.636719 208.425781 434.132812 C 207.703125 435.882812 206.992188 437.589844 206.292969 439.253906 C 199.269531 435.621094 192.867188 431.214844 187.09375 426.027344 C 187.179688 425.367188 187.464844 424.796875 187.945312 424.320312 C 186.757812 423.785156 186.046875 424.210938 185.8125 425.601562 C 151.214844 397.222656 132.511719 360.53125 129.707031 315.519531 C 128.597656 268.472656 145.3125 229.148438 179.839844 197.546875 C 188.953125 189.722656 198.765625 182.96875 209.28125 177.28125 C 209.566406 177.28125 209.707031 177.136719 209.707031 176.851562 C 214.574219 174.417969 219.550781 172.214844 224.640625 170.238281 C 226.75 169.464844 228.882812 168.824219 231.039062 168.320312 C 231.25 169.304688 231.390625 170.300781 231.464844 171.308594 C 231.894531 171.308594 232.320312 171.308594 232.746094 171.308594 C 232.769531 170.28125 232.625 169.285156 232.320312 168.320312 C 232.351562 167.785156 232.636719 167.429688 233.171875 167.253906 C 240.320312 165.144531 247.574219 163.511719 254.933594 162.347656 C 254.796875 164.703125 254.9375 166.980469 255.359375 169.171875 C 255.644531 169.171875 255.929688 169.171875 256.214844 169.171875 C 256.378906 166.640625 256.804688 164.152344 257.492188 161.707031 C 263.511719 160.894531 269.554688 160.398438 275.625 160.214844 C 277.429688 160.21875 279.066406 160.503906 280.535156 161.066406 C 279.761719 164.320312 279.476562 167.59375 279.679688 170.878906 C 280.703125 167.398438 281.488281 163.839844 282.027344 160.214844 C 282.3125 159.753906 282.742188 159.46875 283.308594 159.359375 C 291.109375 160.808594 298.714844 162.941406 306.132812 165.761719 C 304.988281 169.054688 303.78125 172.328125 302.507812 175.574219 C 302.171875 176.1875 302.246094 176.757812 302.71875 177.28125 C 304.273438 173.96875 305.625 170.558594 306.773438 167.039062 C 306.9375 166.644531 307.222656 166.359375 307.625 166.1875 C 315.339844 168.941406 322.664062 172.425781 329.601562 176.640625 C 327.609375 180.054688 325.617188 183.464844 323.625 186.878906 C 323.851562 187.175781 324.136719 187.386719 324.480469 187.519531 C 326.632812 184.285156 328.625 180.941406 330.453125 177.492188 C 331.628906 177.636719 332.765625 178.0625 333.867188 178.773438 C 339.953125 182.453125 345.640625 186.648438 350.933594 191.359375 C 348.210938 194.363281 345.652344 197.492188 343.253906 200.746094 C 343.464844 200.890625 343.679688 201.03125 343.894531 201.171875 C 346.574219 198.203125 349.277344 195.21875 352 192.214844 C 358.246094 197.390625 364.003906 203.082031 369.28125 209.28125 C 366.566406 212.066406 363.648438 214.625 360.535156 216.960938 C 360.214844 217.445312 360.285156 217.871094 360.746094 218.238281 C 363.875 215.679688 367.003906 213.121094 370.132812 210.558594 C 375.320312 216.53125 379.941406 222.933594 384 229.761719 C 384.320312 230.246094 384.25 230.671875 383.785156 231.039062 C 380.726562 232.925781 377.597656 234.703125 374.398438 236.375 C 373.875 236.878906 373.875 237.375 374.398438 237.867188 C 377.8125 235.875 381.226562 233.882812 384.640625 231.894531 C 385.769531 233.007812 386.691406 234.285156 387.414062 235.734375 C 390.589844 241.652344 393.148438 247.765625 395.09375 254.078125 C 391.539062 255.574219 387.914062 256.851562 384.214844 257.921875 C 384.214844 258.347656 384.214844 258.773438 384.214844 259.199219 C 388.015625 258.050781 391.785156 256.769531 395.519531 255.359375 C 398.910156 262.945312 401.117188 270.910156 402.132812 279.253906 C 398.171875 279.960938 394.1875 280.527344 390.1875 280.960938 C 390.1875 281.386719 390.1875 281.8125 390.1875 282.238281 C 394.304688 281.554688 398.429688 281.054688 402.558594 280.746094 C 403.496094 285.449219 404.0625 290.214844 404.265625 295.039062 Z M 404.265625 295.039062 "/>
<path style=" stroke:none;fill-rule:evenodd;fill:rgb(70.19608%,70.19608%,70.19608%);fill-opacity:1;" d="M 209.28125 177.28125 C 198.765625 182.96875 188.953125 189.722656 179.839844 197.546875 C 145.3125 229.148438 128.597656 268.472656 129.707031 315.519531 C 132.511719 360.53125 151.214844 397.222656 185.8125 425.601562 C 184.113281 428.433594 182.40625 431.277344 180.691406 434.132812 C 173.65625 429.9375 166.96875 425.246094 160.640625 420.054688 C 163.128906 417.066406 165.617188 414.078125 168.105469 411.09375 C 168.347656 410.570312 168.203125 410.144531 167.679688 409.8125 C 164.976562 412.941406 162.277344 416.070312 159.574219 419.199219 C 153.308594 413.859375 147.546875 408.027344 142.292969 401.707031 C 145.359375 398.996094 148.488281 396.363281 151.679688 393.8125 C 151.015625 393.0625 150.304688 393.0625 149.546875 393.8125 C 147.128906 395.945312 144.710938 398.078125 142.292969 400.214844 C 141.269531 400.480469 140.484375 400.125 139.945312 399.148438 C 135.328125 393.328125 131.132812 387.210938 127.359375 380.800781 C 130.828125 378.683594 134.242188 376.476562 137.601562 374.1875 C 137.457031 373.972656 137.316406 373.761719 137.171875 373.546875 C 133.585938 375.375 130.101562 377.367188 126.71875 379.519531 C 122.863281 372.65625 119.449219 365.546875 116.480469 358.1875 C 116.160156 357.703125 116.230469 357.277344 116.691406 356.90625 C 119.890625 355.503906 123.164062 354.292969 126.507812 353.28125 C 127.320312 352.925781 127.460938 352.429688 126.933594 351.785156 C 123.164062 353.328125 119.324219 354.605469 115.414062 355.625 C 112.886719 347.789062 110.894531 339.824219 109.441406 331.734375 C 113.425781 331.164062 117.40625 330.59375 121.386719 330.027344 C 121.386719 329.601562 121.386719 329.171875 121.386719 328.746094 C 117.378906 329.324219 113.394531 330.035156 109.441406 330.878906 C 107.910156 322.703125 107.058594 314.457031 106.878906 306.132812 C 111.171875 306.40625 115.296875 306.121094 119.253906 305.28125 C 115.347656 304.855469 111.367188 304.714844 107.308594 304.851562 C 107.308594 301.867188 107.308594 298.878906 107.308594 295.894531 C 107.492188 290.867188 108.058594 285.890625 109.011719 280.960938 C 109.367188 280.816406 109.722656 280.675781 110.078125 280.535156 C 113.351562 281.101562 116.621094 281.671875 119.894531 282.238281 C 120.390625 282.097656 120.890625 281.957031 121.386719 281.8125 C 117.777344 280.808594 114.078125 280.023438 110.292969 279.464844 C 109.8125 279.109375 109.527344 278.609375 109.441406 277.972656 C 111 270.320312 112.988281 262.78125 115.414062 255.359375 C 118.859375 256.441406 122.273438 257.648438 125.652344 258.988281 C 126.269531 259.320312 126.839844 259.25 127.359375 258.773438 C 123.824219 257.09375 120.195312 255.527344 116.480469 254.078125 C 117.207031 251.191406 118.203125 248.347656 119.464844 245.546875 C 121.636719 240.777344 124.125 236.222656 126.933594 231.894531 C 130.347656 233.882812 133.761719 235.875 137.171875 237.867188 C 137.699219 237.375 137.699219 236.878906 137.171875 236.375 C 133.761719 234.667969 130.492188 232.75 127.359375 230.613281 C 131.332031 223.59375 135.882812 216.980469 141.011719 210.773438 C 141.921875 210.941406 142.777344 211.371094 143.574219 212.054688 C 145.929688 214.195312 148.347656 216.257812 150.828125 218.238281 C 151.289062 217.871094 151.359375 217.445312 151.039062 216.960938 C 148.003906 214.621094 145.089844 212.132812 142.292969 209.492188 C 147.492188 203.085938 153.324219 197.324219 159.785156 192.214844 C 162.191406 195.046875 164.609375 197.890625 167.039062 200.746094 C 167.464844 201.316406 167.894531 201.316406 168.320312 200.746094 C 166.074219 197.574219 163.582031 194.585938 160.851562 191.785156 C 160.636719 191.148438 160.851562 190.652344 161.492188 190.292969 C 167.570312 185.585938 173.898438 181.246094 180.480469 177.28125 C 180.808594 177.34375 181.09375 177.484375 181.332031 177.707031 C 183.167969 181.097656 185.15625 184.367188 187.308594 187.519531 C 187.519531 187.378906 187.734375 187.234375 187.945312 187.09375 C 186.054688 183.5625 184.0625 180.078125 181.972656 176.640625 C 188.546875 172.5 195.519531 169.085938 202.878906 166.398438 C 203.496094 166.066406 204.066406 166.136719 204.585938 166.613281 C 205.835938 169.867188 207.046875 173.140625 208.214844 176.425781 C 208.390625 176.960938 208.746094 177.246094 209.28125 177.28125 Z M 209.28125 177.28125 "/>
<path style=" stroke:none;fill-rule:evenodd;fill:rgb(85.882354%,45.490196%,43.921569%);fill-opacity:1;" d="M 344.535156 228.480469 C 345.121094 227.382812 345.976562 226.742188 347.09375 226.558594 C 346.40625 227.46875 345.550781 228.109375 344.535156 228.480469 Z M 344.535156 228.480469 "/>
<path style=" stroke:none;fill-rule:evenodd;fill:rgb(81.960785%,16.078432%,15.686275%);fill-opacity:1;" d="M 344.535156 228.480469 C 319.265625 251.5 293.808594 274.328125 268.160156 296.960938 C 271.292969 303.75 270.152344 309.722656 264.746094 314.878906 C 259.359375 318.21875 253.8125 318.5 248.105469 315.734375 C 241.90625 310.777344 240.269531 304.589844 243.199219 297.171875 C 248.167969 289.875 254.78125 287.8125 263.039062 290.988281 C 290.160156 270.050781 317.324219 249.214844 344.535156 228.480469 Z M 344.535156 228.480469 "/>
<path style=" stroke:none;fill-rule:evenodd;fill:rgb(31.37255%,30.19608%,30.19608%);fill-opacity:1;" d="M 254.078125 298.878906 C 256.859375 298.292969 259.066406 299.144531 260.691406 301.441406 C 261.976562 305.84375 260.339844 308.402344 255.785156 309.121094 C 251.925781 308.238281 250.433594 305.820312 251.308594 301.867188 C 252.03125 300.648438 252.953125 299.652344 254.078125 298.878906 Z M 254.078125 298.878906 "/>
<path style=" stroke:none;fill-rule:evenodd;fill:rgb(49.019608%,49.019608%,49.019608%);fill-opacity:1;" d="M 107.308594 295.894531 C 107.308594 298.878906 107.308594 301.867188 107.308594 304.851562 C 111.367188 304.714844 115.347656 304.855469 119.253906 305.28125 C 115.128906 305.28125 111.003906 305.28125 106.878906 305.28125 C 106.742188 302.070312 106.882812 298.941406 107.308594 295.894531 Z M 107.308594 295.894531 "/>
<path style=" stroke:none;fill-rule:evenodd;fill:rgb(59.215689%,59.215689%,59.215689%);fill-opacity:1;" d="M 404.265625 295.039062 C 404.691406 298.375 404.832031 301.789062 404.691406 305.28125 C 400.570312 305.28125 396.445312 305.28125 392.320312 305.28125 C 396.226562 304.855469 400.207031 304.714844 404.265625 304.851562 C 404.265625 301.582031 404.265625 298.3125 404.265625 295.039062 Z M 404.265625 295.039062 "/>
<path style=" stroke:none;fill-rule:evenodd;fill:rgb(70.19608%,70.19608%,70.19608%);fill-opacity:1;" d="M 187.09375 426.027344 C 192.867188 431.214844 199.269531 435.621094 206.292969 439.253906 C 205.640625 441.214844 205.070312 443.203125 204.585938 445.226562 C 196.792969 442.511719 189.324219 439.101562 182.1875 434.988281 C 183.582031 431.914062 185.21875 428.929688 187.09375 426.027344 Z M 187.09375 426.027344 "/>
<path style=" stroke:none;fill-rule:evenodd;fill:rgb(69.803923%,69.803923%,69.803923%);fill-opacity:1;" d="M 207.574219 440.105469 C 214.597656 444.152344 221.992188 447.28125 229.761719 449.492188 C 229.617188 450.347656 229.476562 451.199219 229.332031 452.054688 C 221.316406 450.726562 213.496094 448.660156 205.867188 445.867188 C 205.671875 445.691406 205.527344 445.476562 205.441406 445.226562 C 206.160156 443.476562 206.875 441.769531 207.574219 440.105469 Z M 207.574219 440.105469 "/>
<path style=" stroke:none;fill-rule:evenodd;fill:rgb(64.313728%,64.313728%,64.313728%);fill-opacity:1;" d="M 255.359375 442.238281 C 255.359375 446.367188 255.359375 450.488281 255.359375 454.613281 C 253.425781 454.75 251.578125 454.605469 249.8125 454.1875 C 251.519531 454.1875 253.226562 454.1875 254.933594 454.1875 C 254.792969 450.128906 254.9375 446.144531 255.359375 442.238281 Z M 255.359375 442.238281 "/>
<path style=" stroke:none;fill-rule:evenodd;fill:rgb(67.450982%,67.450982%,67.450982%);fill-opacity:1;" d="M 231.039062 449.492188 C 231.074219 450.027344 231.359375 450.378906 231.894531 450.558594 C 235.113281 451.503906 238.242188 452.570312 241.28125 453.761719 C 237.710938 453.441406 234.15625 453.011719 230.613281 452.480469 C 230.484375 451.386719 230.628906 450.394531 231.039062 449.492188 Z M 231.039062 449.492188 "/>
<path style=" stroke:none;fill-rule:evenodd;fill:rgb(70.588237%,70.588237%,70.588237%);fill-opacity:1;" d="M 225.921875 477.652344 C 249.671875 477.582031 273.421875 477.652344 297.171875 477.867188 C 317.304688 478.28125 337.355469 479.703125 357.332031 482.132812 C 359.65625 482.523438 361.929688 483.089844 364.160156 483.839844 C 365.527344 484.105469 365.953125 484.816406 365.441406 485.972656 C 364.335938 486.484375 363.199219 486.910156 362.027344 487.253906 C 356.507812 488.28125 350.960938 489.136719 345.386719 489.8125 C 293.789062 493.46875 242.160156 493.898438 190.507812 491.09375 C 179.898438 490.453125 169.375 489.171875 158.933594 487.253906 C 154.398438 485.875 154.398438 484.453125 158.933594 482.988281 C 166.273438 481.601562 173.671875 480.601562 181.121094 480 C 196.105469 478.90625 211.039062 478.125 225.921875 477.652344 Z M 225.921875 477.652344 "/>
</g>
</svg>
