<?xml version="1.0" encoding="UTF-8"?>
<!DOCTYPE svg PUBLIC "-//W3C//DTD SVG 1.1//EN" "http://www.w3.org/Graphics/SVG/1.1/DTD/svg11.dtd">
<svg xmlns="http://www.w3.org/2000/svg" version="1.1" width="1200px" height="1200px" style="shape-rendering:geometricPrecision; text-rendering:geometricPrecision; image-rendering:optimizeQuality; fill-rule:evenodd; clip-rule:evenodd" xmlns:xlink="http://www.w3.org/1999/xlink">
<g><path style="opacity:1" fill="#fefefe" d="M -0.5,-0.5 C 399.5,-0.5 799.5,-0.5 1199.5,-0.5C 1199.5,399.5 1199.5,799.5 1199.5,1199.5C 799.5,1199.5 399.5,1199.5 -0.5,1199.5C -0.5,799.5 -0.5,399.5 -0.5,-0.5 Z"/></g>
<g><path style="opacity:1" fill="#4e4e4e" d="M 630.5,309.5 C 629.846,292.996 629.846,276.663 630.5,260.5C 630.5,268.167 630.5,275.833 630.5,283.5C 663.441,272.396 686.607,250.729 700,218.5C 715.878,170.509 705.378,129.342 668.5,95C 637.112,70.4069 602.112,63.4069 563.5,74C 523.954,88.2123 499.121,115.712 489,156.5C 481.779,208.546 500.279,248.379 544.5,276C 549.525,279.015 554.858,281.182 560.5,282.5C 560.5,274.833 560.5,267.167 560.5,259.5C 561.154,275.663 561.154,291.996 560.5,308.5C 526.168,299.017 499.668,279.017 481,248.5C 460.47,211.513 456.804,172.846 470,132.5C 493.908,76.2915 536.408,46.9582 597.5,44.5C 655.577,46.9382 697.077,74.2715 722,126.5C 739.692,173.608 734.358,217.942 706,259.5C 686.588,284.794 661.422,301.46 630.5,309.5 Z"/></g>
<g><path style="opacity:1" fill="#fdfdfd" d="M 630.5,260.5 C 637.801,258.622 644.801,255.955 651.5,252.5C 652.829,226.33 652.829,199.997 651.5,173.5C 613.769,152.188 576.103,152.188 538.5,173.5C 537.171,199.664 537.171,225.664 538.5,251.5C 545.704,254.78 553.037,257.446 560.5,259.5C 560.5,267.167 560.5,274.833 560.5,282.5C 554.858,281.182 549.525,279.015 544.5,276C 500.279,248.379 481.779,208.546 489,156.5C 499.121,115.712 523.954,88.2123 563.5,74C 602.112,63.4069 637.112,70.4069 668.5,95C 705.378,129.342 715.878,170.509 700,218.5C 686.607,250.729 663.441,272.396 630.5,283.5C 630.5,275.833 630.5,268.167 630.5,260.5 Z"/></g>
<g><path style="opacity:1" fill="#4d4d4d" d="M 651.5,252.5 C 651.047,251.542 650.381,250.708 649.5,250C 613.722,235.016 577.722,234.683 541.5,249C 540.429,249.852 539.429,250.685 538.5,251.5C 537.171,225.664 537.171,199.664 538.5,173.5C 576.103,152.188 613.769,152.188 651.5,173.5C 652.829,199.997 652.829,226.33 651.5,252.5 Z"/></g>
<g><path style="opacity:1" fill="#333333" d="M 651.5,252.5 C 644.801,255.955 637.801,258.622 630.5,260.5C 629.846,276.663 629.846,292.996 630.5,309.5C 629.51,315.31 629.177,321.31 629.5,327.5C 606.811,327.22 584.145,327.553 561.5,328.5C 561.823,321.978 561.49,315.645 560.5,309.5C 560.5,309.167 560.5,308.833 560.5,308.5C 561.154,291.996 561.154,275.663 560.5,259.5C 553.037,257.446 545.704,254.78 538.5,251.5C 539.429,250.685 540.429,249.852 541.5,249C 577.722,234.683 613.722,235.016 649.5,250C 650.381,250.708 651.047,251.542 651.5,252.5 Z"/></g>
<g><path style="opacity:1" fill="#4e4e4e" d="M 560.5,309.5 C 561.49,315.645 561.823,321.978 561.5,328.5C 584.145,327.553 606.811,327.22 629.5,327.5C 629.177,321.31 629.51,315.31 630.5,309.5C 630.5,315.833 630.5,322.167 630.5,328.5C 709.127,335.033 779.46,362.366 841.5,410.5C 851.819,400.681 861.986,390.681 872,380.5C 871.747,377.867 871.747,375.2 872,372.5C 887.5,356.333 903,340.167 918.5,324C 941.832,326.974 957.999,339.474 967,361.5C 969.75,367.585 971.083,373.918 971,380.5C 953.833,395 936.667,409.5 919.5,424C 916.904,424.458 914.737,423.625 913,421.5C 902.989,430.678 893.156,440.012 883.5,449.5C 967.993,542.836 1001.49,652.169 984,777.5C 962.796,895.626 901.629,986.459 800.5,1050C 705.984,1104.45 605.651,1118.79 499.5,1093C 382.51,1059 297.676,987.166 245,877.5C 203.862,782.175 199.529,685.175 232,586.5C 250.42,536.122 277.587,491.289 313.5,452C 303.804,441.97 293.804,432.303 283.5,423C 280.965,422.383 278.632,422.883 276.5,424.5C 258.722,410.19 241.222,395.524 224,380.5C 226.356,354.962 239.189,336.796 262.5,326C 266.97,323.858 271.637,323.191 276.5,324C 292.347,340.214 307.847,356.714 323,373.5C 323.429,375.669 322.929,377.669 321.5,379.5C 332.476,390.808 343.809,401.808 355.5,412.5C 415.576,364.981 483.91,336.981 560.5,328.5C 560.5,322.167 560.5,315.833 560.5,309.5 Z"/></g>
<g><path style="opacity:1" fill="#b2b2b2" d="M 598.5,396.5 C 597.512,391.36 597.179,386.026 597.5,380.5C 580.25,383.229 563.25,387.062 546.5,392C 545.244,392.417 544.577,393.25 544.5,394.5C 543.446,387.754 542.113,380.92 540.5,374C 540.645,373.228 540.978,372.561 541.5,372C 560.363,368.725 579.363,367.225 598.5,367.5C 598.5,377.167 598.5,386.833 598.5,396.5 Z"/></g>
<g><path style="opacity:1" fill="#b1b1b1" d="M 657.5,377.5 C 654.062,376.177 650.229,375.51 646,375.5C 631.769,375.933 617.602,377.1 603.5,379C 601.885,384.728 600.885,390.561 600.5,396.5C 600.5,386.833 600.5,377.167 600.5,367.5C 619.989,367.607 639.322,369.273 658.5,372.5C 658.784,374.415 658.451,376.081 657.5,377.5 Z"/></g>
<g><path style="opacity:1" fill="#b3b3b3" d="M 541.5,394.5 C 536.446,395.684 531.446,397.184 526.5,399C 514.576,403.629 502.91,408.796 491.5,414.5C 487.824,405.474 484.824,396.474 482.5,387.5C 500.637,380.632 519.304,375.966 538.5,373.5C 539.111,380.557 540.111,387.557 541.5,394.5 Z"/></g>
<g><path style="opacity:1" fill="#e7e7e7" d="M 947.5,691.5 C 947.5,699.167 947.5,706.833 947.5,714.5C 937.985,714.173 928.652,714.506 919.5,715.5C 928.775,717.473 938.442,718.14 948.5,717.5C 948.156,736.957 946.49,756.291 943.5,775.5C 933.814,773.941 924.147,772.275 914.5,770.5C 914.5,771.5 914.5,772.5 914.5,773.5C 923.806,775.051 933.139,776.384 942.5,777.5C 939.607,796.301 934.941,814.634 928.5,832.5C 919.195,831.516 910.195,828.85 901.5,824.5C 901.167,825 900.833,825.5 900.5,826C 901.444,827.477 902.777,828.477 904.5,829C 912.302,831.103 919.636,834.103 926.5,838C 920.074,856.017 911.908,873.184 902,889.5C 894.583,884.874 887.083,880.374 879.5,876C 878.365,875.251 877.365,875.417 876.5,876.5C 884.5,881.833 892.5,887.167 900.5,892.5C 893.924,903.905 886.757,914.905 879,925.5C 875.299,930.198 871.299,934.531 867,938.5C 860.218,933.389 853.718,927.889 847.5,922C 846.365,921.251 845.365,921.417 844.5,922.5C 850.863,929.03 857.697,935.03 865,940.5C 864.602,942.631 863.602,944.631 862,946.5C 850.633,959.534 838.3,971.534 825,982.5C 818.667,975.167 812.333,967.833 806,960.5C 804.77,961.275 804.437,962.275 805,963.5C 810.715,970.426 816.548,977.26 822.5,984C 807.889,996.64 792.222,1007.81 775.5,1017.5C 770.801,1009.96 766.301,1002.3 762,994.5C 760.817,993.269 759.651,993.269 758.5,994.5C 763.592,1002.69 768.092,1011.03 772,1019.5C 755.2,1028.98 737.7,1036.98 719.5,1043.5C 717.331,1033.99 713.998,1024.99 709.5,1016.5C 709.167,1017.17 708.833,1017.83 708.5,1018.5C 711.301,1026.9 714.301,1035.24 717.5,1043.5C 699.883,1051.16 681.55,1056.49 662.5,1059.5C 660.374,1050.04 658.041,1040.71 655.5,1031.5C 655.167,1032.5 654.833,1033.5 654.5,1034.5C 656.053,1043.15 657.387,1051.82 658.5,1060.5C 648.159,1061.53 637.826,1062.7 627.5,1064C 618.506,1064.5 609.506,1064.67 600.5,1064.5C 601.139,1054.77 600.472,1045.44 598.5,1036.5C 597.506,1045.65 597.173,1054.99 597.5,1064.5C 593.5,1064.5 589.5,1064.5 585.5,1064.5C 578.804,1064.61 572.137,1064.28 565.5,1063.5C 558.384,1060.71 551.05,1058.21 543.5,1056C 542.244,1055.58 541.577,1054.75 541.5,1053.5C 542.551,1047.36 543.551,1041.19 544.5,1035C 544.167,1033.83 543.833,1032.67 543.5,1031.5C 541.194,1038.66 539.527,1046 538.5,1053.5C 520.294,1048.32 502.96,1040.98 486.5,1031.5C 487.673,1026.81 489.34,1022.31 491.5,1018C 490.576,1016.51 489.576,1016.34 488.5,1017.5C 486.808,1021.6 485.141,1025.6 483.5,1029.5C 467.037,1020.99 452.037,1010.66 438.5,998.5C 438.703,996.956 439.37,995.622 440.5,994.5C 437.712,993.248 436.046,994.248 435.5,997.5C 354.409,930.992 310.575,844.992 304,739.5C 301.405,629.231 340.572,537.064 421.5,463C 442.861,444.664 465.861,428.83 490.5,415.5C 491.167,415.5 491.5,415.167 491.5,414.5C 502.91,408.796 514.576,403.629 526.5,399C 531.446,397.184 536.446,395.684 541.5,394.5C 541.993,396.806 542.326,399.139 542.5,401.5C 543.5,401.5 544.5,401.5 545.5,401.5C 545.552,399.097 545.219,396.764 544.5,394.5C 544.577,393.25 545.244,392.417 546.5,392C 563.25,387.062 580.25,383.229 597.5,380.5C 597.179,386.026 597.512,391.36 598.5,396.5C 599.167,396.5 599.833,396.5 600.5,396.5C 600.885,390.561 601.885,384.728 603.5,379C 617.602,377.1 631.769,375.933 646,375.5C 650.229,375.51 654.062,376.177 657.5,377.5C 655.693,385.128 655.026,392.795 655.5,400.5C 657.9,392.336 659.734,384.003 661,375.5C 661.674,374.422 662.674,373.755 664,373.5C 682.284,376.892 700.117,381.892 717.5,388.5C 714.819,396.223 711.986,403.89 709,411.5C 708.219,412.944 708.386,414.277 709.5,415.5C 713.144,407.743 716.311,399.743 719,391.5C 719.388,390.572 720.055,389.905 721,389.5C 739.079,395.958 756.245,404.125 772.5,414C 767.833,422 763.167,430 758.5,438C 759.025,438.692 759.692,439.192 760.5,439.5C 765.544,431.915 770.211,424.081 774.5,416C 777.255,416.335 779.922,417.335 782.5,419C 796.761,427.625 810.094,437.458 822.5,448.5C 816.122,455.543 810.122,462.876 804.5,470.5C 805,470.833 805.5,471.167 806,471.5C 812.286,464.543 818.62,457.543 825,450.5C 839.637,462.637 853.137,475.97 865.5,490.5C 859.137,497.03 852.303,503.03 845,508.5C 844.251,509.635 844.417,510.635 845.5,511.5C 852.833,505.5 860.167,499.5 867.5,493.5C 879.657,507.498 890.49,522.498 900,538.5C 900.749,539.635 900.583,540.635 899.5,541.5C 892.329,545.92 884.996,550.086 877.5,554C 876.269,555.183 876.269,556.349 877.5,557.5C 885.5,552.833 893.5,548.167 901.5,543.5C 904.144,546.109 906.311,549.109 908,552.5C 915.445,566.37 921.445,580.704 926,595.5C 917.67,598.999 909.17,601.999 900.5,604.5C 900.5,605.5 900.5,606.5 900.5,607.5C 909.41,604.808 918.243,601.808 927,598.5C 934.948,616.279 940.114,634.946 942.5,654.5C 933.214,656.155 923.881,657.488 914.5,658.5C 914.5,659.5 914.5,660.5 914.5,661.5C 924.15,659.89 933.817,658.723 943.5,658C 945.69,669.025 947.024,680.192 947.5,691.5 Z"/></g>
<g><path style="opacity:1" fill="#b3b3b3" d="M 490.5,415.5 C 465.861,428.83 442.861,444.664 421.5,463C 340.572,537.064 301.405,629.231 304,739.5C 310.575,844.992 354.409,930.992 435.5,997.5C 431.511,1004.14 427.511,1010.81 423.5,1017.5C 407.003,1007.67 391.336,996.667 376.5,984.5C 382.333,977.5 388.167,970.5 394,963.5C 394.563,962.275 394.23,961.275 393,960.5C 386.667,967.833 380.333,975.167 374,982.5C 359.316,969.983 345.816,956.316 333.5,941.5C 340.687,935.145 348.02,928.979 355.5,923C 353.941,921.244 352.274,921.244 350.5,923C 344.833,928 339.167,933 333.5,938C 331.097,938.63 329.263,937.797 328,935.5C 317.179,921.862 307.345,907.528 298.5,892.5C 306.63,887.537 314.63,882.37 322.5,877C 322.167,876.5 321.833,876 321.5,875.5C 313.089,879.787 304.922,884.454 297,889.5C 287.958,873.413 279.958,856.746 273,839.5C 272.251,838.365 272.417,837.365 273.5,836.5C 280.997,833.209 288.664,830.376 296.5,828C 298.405,827.174 298.739,826.007 297.5,824.5C 288.669,828.11 279.669,831.11 270.5,833.5C 264.574,815.129 259.907,796.462 256.5,777.5C 265.839,776.166 275.173,774.832 284.5,773.5C 284.5,772.5 284.5,771.5 284.5,770.5C 275.103,771.85 265.77,773.516 256.5,775.5C 252.917,756.34 250.917,737.006 250.5,717.5C 260.558,718.14 270.225,717.473 279.5,715.5C 270.348,714.506 261.015,714.173 251.5,714.5C 251.5,707.5 251.5,700.5 251.5,693.5C 251.931,681.719 253.264,670.052 255.5,658.5C 256.333,658.167 257.167,657.833 258,657.5C 265.667,658.833 273.334,660.167 281,661.5C 282.167,661.167 283.333,660.833 284.5,660.5C 276.039,658.141 267.372,656.308 258.5,655C 257.376,654.161 256.709,652.994 256.5,651.5C 260.154,633.564 264.82,615.897 270.5,598.5C 278.576,601.034 286.576,603.867 294.5,607C 295.944,607.781 297.277,607.614 298.5,606.5C 290.212,602.563 281.712,598.896 273,595.5C 274.703,588.73 277.036,582.063 280,575.5C 285.087,564.318 290.921,553.651 297.5,543.5C 305.5,548.167 313.5,552.833 321.5,557.5C 322.731,556.349 322.731,555.183 321.5,554C 313.504,550.004 305.838,545.504 298.5,540.5C 307.809,524.044 318.475,508.544 330.5,494C 332.631,494.398 334.631,495.398 336.5,497C 342.02,502.021 347.686,506.854 353.5,511.5C 354.583,510.635 354.749,509.635 354,508.5C 346.888,503.022 340.054,497.189 333.5,491C 345.685,475.982 359.351,462.482 374.5,450.5C 380.137,457.142 385.804,463.808 391.5,470.5C 392.5,471.833 393.5,471.833 394.5,470.5C 389.232,463.062 383.398,456.062 377,449.5C 376.493,448.004 376.993,446.837 378.5,446C 392.742,434.963 407.576,424.796 423,415.5C 423.772,415.645 424.439,415.978 425,416.5C 429.298,424.448 433.964,432.115 439,439.5C 439.5,439.167 440,438.833 440.5,438.5C 436.066,430.225 431.399,422.058 426.5,414C 441.911,404.296 458.245,396.296 475.5,390C 476.944,389.219 478.277,389.386 479.5,390.5C 482.432,398.128 485.265,405.795 488,413.5C 488.417,414.756 489.25,415.423 490.5,415.5 Z"/></g>
<g><path style="opacity:1" fill="#db7470" d="M 807.5,535.5 C 808.879,532.927 810.879,531.427 813.5,531C 811.886,533.127 809.886,534.627 807.5,535.5 Z"/></g>
<g><path style="opacity:1" fill="#d12928" d="M 807.5,535.5 C 748.283,589.452 688.617,642.952 628.5,696C 635.841,711.916 633.174,725.916 620.5,738C 607.873,745.821 594.873,746.488 581.5,740C 566.97,728.38 563.136,713.88 570,696.5C 581.645,679.396 597.145,674.563 616.5,682C 680.061,632.927 743.728,584.094 807.5,535.5 Z"/></g>
<g><path style="opacity:1" fill="#504d4d" d="M 595.5,700.5 C 602.018,699.123 607.185,701.123 611,706.5C 614.005,716.817 610.172,722.817 599.5,724.5C 590.455,722.429 586.955,716.763 589,707.5C 590.694,704.642 592.861,702.309 595.5,700.5 Z"/></g>
<g><path style="opacity:1" fill="#7d7d7d" d="M 251.5,693.5 C 251.5,700.5 251.5,707.5 251.5,714.5C 261.015,714.173 270.348,714.506 279.5,715.5C 269.833,715.5 260.167,715.5 250.5,715.5C 250.175,707.981 250.508,700.648 251.5,693.5 Z"/></g>
<g><path style="opacity:1" fill="#979797" d="M 947.5,691.5 C 948.492,699.316 948.826,707.316 948.5,715.5C 938.833,715.5 929.167,715.5 919.5,715.5C 928.652,714.506 937.985,714.173 947.5,714.5C 947.5,706.833 947.5,699.167 947.5,691.5 Z"/></g>
<g><path style="opacity:1" fill="#b3b3b3" d="M 438.5,998.5 C 452.037,1010.66 467.037,1020.99 483.5,1029.5C 481.968,1034.1 480.635,1038.76 479.5,1043.5C 461.233,1037.14 443.733,1029.14 427,1019.5C 430.272,1012.3 434.105,1005.3 438.5,998.5 Z"/></g>
<g><path style="opacity:1" fill="#b2b2b2" d="M 486.5,1031.5 C 502.96,1040.98 520.294,1048.32 538.5,1053.5C 538.167,1055.5 537.833,1057.5 537.5,1059.5C 518.713,1056.39 500.379,1051.55 482.5,1045C 482.043,1044.59 481.709,1044.09 481.5,1043.5C 483.192,1039.4 484.859,1035.4 486.5,1031.5 Z"/></g>
<g><path style="opacity:1" fill="#a4a4a4" d="M 598.5,1036.5 C 598.5,1046.17 598.5,1055.83 598.5,1065.5C 593.968,1065.82 589.634,1065.48 585.5,1064.5C 589.5,1064.5 593.5,1064.5 597.5,1064.5C 597.173,1054.99 597.506,1045.65 598.5,1036.5 Z"/></g>
<g><path style="opacity:1" fill="#acacac" d="M 541.5,1053.5 C 541.577,1054.75 542.244,1055.58 543.5,1056C 551.05,1058.21 558.384,1060.71 565.5,1063.5C 557.135,1062.75 548.801,1061.75 540.5,1060.5C 540.198,1057.94 540.532,1055.61 541.5,1053.5 Z"/></g>
<g><path style="opacity:1" fill="#b4b4b4" d="M 529.5,1119.5 C 585.168,1119.33 640.834,1119.5 696.5,1120C 743.679,1120.97 790.679,1124.3 837.5,1130C 842.944,1130.91 848.277,1132.24 853.5,1134C 856.706,1134.62 857.706,1136.29 856.5,1139C 853.911,1140.2 851.244,1141.2 848.5,1142C 835.563,1144.41 822.563,1146.41 809.5,1148C 688.567,1156.57 567.567,1157.57 446.5,1151C 421.635,1149.5 396.969,1146.5 372.5,1142C 361.873,1138.77 361.873,1135.44 372.5,1132C 389.707,1128.75 407.04,1126.41 424.5,1125C 459.621,1122.44 494.621,1120.61 529.5,1119.5 Z"/></g>
</svg>
